<?xml version="1.0" standalone="no"?>
<!DOCTYPE svg PUBLIC "-//W3C//DTD SVG 1.1//EN" "http://www.w3.org/Graphics/SVG/1.1/DTD/svg11.dtd" >
<svg>
<metadata>
Created by FontForge 20090914 at Tue May  5 22:45:59 2015
 By www-data
Corrected by  Abdullah Naser Al-Mawash
</metadata>
<defs>
<font id="almwahebbyA4D" horiz-adv-x="0" >
  <font-face 
    font-family="almwaheb by A4D"
    font-weight="700"
    font-stretch="normal"
    units-per-em="2010"
    panose-1="0 0 7 0 0 0 0 0 0 0"
    ascent="1608"
    descent="-402"
    bbox="-177 -1514 2246 2149"
    underline-thickness="100"
    underline-position="-830"
    unicode-range="U+0020-U+FEFC"
  />
<missing-glyph horiz-adv-x="1005" 
d="M126 0v1181h753v-1181h-753zM251 126h503v929h-503v-929z" />
    <glyph glyph-name="uE818" unicode="&#x651;&#x64b;" 
d="M379 1419c-15.333 -57.333 -42.999 -86 -82.999 -86c-24 0 -40.833 4.83301 -50.5 14.5s-18.5 19.167 -26.5 28.5l-39 -70c-24.667 -33.333 -56.334 -50 -95.001 -50c-21.333 0 -38.333 15 -51 45c-9.33301 22 -14 45 -14 69c0 77.333 20.667 119.333 62 126
c-4 -25.333 -6 -47 -6 -65c0 -40 9.66699 -60 29 -60c34.667 0 56.667 23.667 66 71c2.66699 13.333 6.66699 42.333 12 87c14 7.33301 30.333 14 49 20c5.33301 -70.667 21.333 -106 48 -106c36 0 55 50.333 57 151l35 16c20 -72 22.333 -135.667 7 -191zM383.001 1775
l-355 -189v77l355 191v-79zM383.001 1949l-355 -186v76l355 191v-81zM383.001 1775l-355 -189v77l355 191v-79z" />
    <glyph glyph-name="uFC5E" unicode="&#x651;&#x64c;" arabic-form="isolated" 
d="M383 1432c-15.333 -57.333 -42.999 -86 -82.999 -86c-24 0 -40.833 4.83301 -50.5 14.5s-18.5 19.167 -26.5 28.5l-39 -70c-24.667 -33.333 -56.334 -50 -95.001 -50c-21.333 0 -38.333 15 -51 45c-9.33301 22 -14 45 -14 69c0 77.333 20.667 119.333 62 126
c-4 -25.333 -6 -47 -6 -65c0 -40 9.66699 -60 29 -60c34.667 0 56.667 23.667 66 71c2.66699 13.333 6.66699 42.333 12 87c14 7.33301 30.333 14 49 20c5.33301 -70.667 21.333 -106 48 -106c36 0 55 50.333 57 151l35 16c20 -72 22.333 -135.667 7 -191zM395.001 1798
c2.66699 -10 3.99902 -18.999 3.99902 -26.999c0 -20.667 -6.33301 -39 -19 -55c-22 4.66699 -51.333 12.667 -88 24c-90.667 -84.667 -179.667 -137 -267 -157l-16 53l72 43c16 39.333 13.333 64.666 -8 75.999c-16.667 9.33301 -37.334 4.33301 -62.001 -15l-18 31
c30.667 35.333 65.334 53 104.001 53c28 0 42 -21 42 -63c0 -23.333 -6 -47 -18 -71c58.667 33.333 97.334 62.333 116.001 87c-36 34.667 -54 67.334 -54 98.001c0 25.333 15.667 57.5 47 96.5s59.333 58.5 84 58.5c48.667 0 73 -28 73 -84
c0 -52.667 -15.667 -96.334 -47 -131.001c14.667 -7.33301 33 -13 55 -17zM337 1913c0 28 -15.999 42 -47.999 42c-12.667 0 -23.334 -7.5 -32.001 -22.5s-13 -29.5 -13 -43.5c0 -10 6 -22.167 18 -36.5s23 -21.5 33 -21.5c9.33301 0 19 11.333 29 34
c8.66699 20 13 36 13 48z" />
    <glyph glyph-name="uFC5F" unicode="&#x651;&#x64d;" arabic-form="isolated" 
d="M395 1875c-15.333 -57.333 -42.999 -86 -82.999 -86c-24 0 -40.833 4.83301 -50.5 14.5s-18.5 19.167 -26.5 28.5l-39 -70c-24.667 -33.333 -56.334 -50 -95.001 -50c-21.333 0 -38.333 15 -51 45c-9.33301 22 -14 45 -14 69c0 77.333 20.667 119.333 62 126
c-4 -25.333 -6 -47 -6 -65c0 -40 9.66699 -60 29 -60c34.667 0 56.667 23.667 66 71c2.66699 13.333 6.66699 42.333 12 87c14 7.33301 30.333 14 49 20c5.33301 -70.667 21.333 -106 48 -106c36 0 55 50.333 57 151l35 16c20 -72 22.333 -135.667 7 -191zM393.001 1472
l-366 -193v78l366 198v-83zM393.001 1663l-366 -193v79l366 196v-82z" />
    <glyph glyph-name="uFC60" unicode="&#x651;&#x64e;" arabic-form="isolated" 
d="M395 1387c-15.333 -57.333 -42.999 -86 -82.999 -86c-24 0 -40.833 4.83301 -50.5 14.5s-18.5 19.167 -26.5 28.5l-39 -70c-24.667 -33.333 -56.334 -50 -95.001 -50c-21.333 0 -38.333 15 -51 45c-9.33301 22 -14 45 -14 69c0 77.333 20.667 119.333 62 126
c-4 -25.333 -6 -47 -6 -65c0 -40 9.66699 -60 29 -60c34.667 0 56.667 23.667 66 71c2.66699 13.333 6.66699 42.333 12 87c14 7.33301 30.333 14 49 20c5.33301 -70.667 21.333 -106 48 -106c36 0 55 50.333 57 151l35 16c20 -72 22.333 -135.667 7 -191zM387.001 1745
l-355 -189v77l355 191v-79z" />
    <glyph glyph-name="uFC61" unicode="&#x651;&#x64f;" arabic-form="isolated" 
d="M400 1395c-15.333 -57.333 -42.999 -86 -82.999 -86c-24 0 -40.833 4.83301 -50.5 14.5s-18.5 19.167 -26.5 28.5l-39 -70c-24.667 -33.333 -56.334 -50 -95.001 -50c-21.333 0 -38.333 15 -51 45c-9.33301 22 -14 45 -14 69c0 77.333 20.667 119.333 62 126
c-4 -25.333 -6 -47 -6 -65c0 -40 9.66699 -60 29 -60c34.667 0 56.667 23.667 66 71c2.66699 13.333 6.66699 42.333 12 87c14 7.33301 30.333 14 49 20c5.33301 -70.667 21.333 -106 48 -106c36 0 55 50.333 57 151l35 16c20 -72 22.333 -135.667 7 -191zM414.001 1771
c2.66699 -10 4.00098 -18.999 4.00098 -26.999c0 -20.667 -6.33301 -39 -19 -55c-22 4.66699 -51.333 12.667 -88 24c-90.667 -84.667 -179.667 -137 -267 -157l-16 52c107.333 42 183.333 89.333 228 142c-36 34.667 -54 67.334 -54 98.001c0 25.333 15.667 57.5 47 96.5
s59.333 58.5 84 58.5c48.667 0 73 -28 73 -84c0 -54.667 -15.667 -98.334 -47 -131.001c11.333 -6.66699 29.666 -12.334 54.999 -17.001zM356.002 1886c0 28 -15.999 42 -47.999 42c-12.667 0 -23.334 -7.5 -32.001 -22.5s-13 -29.5 -13 -43.5c0 -10 6 -22.167 18 -36.5
s23 -21.5 33 -21.5c9.33301 0 19 11.333 29 34c8.66699 20 13 36 13 48z" />
    <glyph glyph-name="uFC62" unicode="&#x651;&#x650;" arabic-form="isolated" 
d="M377 1650c-15.333 -57.333 -42.999 -86 -82.999 -86c-24 0 -40.833 4.83301 -50.5 14.5s-18.5 19.167 -26.5 28.5l-39 -70c-24.667 -33.333 -56.334 -50 -95.001 -50c-21.333 0 -38.333 15 -51 45c-9.33301 22 -14 45 -14 69c0 77.333 20.667 119.333 62 126
c-4 -25.333 -6 -47 -6 -65c0 -40 9.66699 -60 29 -60c34.667 0 56.667 23.667 66 71c2.66699 13.333 6.66699 42.333 12 87c14 7.33301 30.333 14 49 20c5.33301 -70.667 21.333 -106 48 -106c36 0 55 50.333 57 151l35 16c20 -72 22.333 -135.667 7 -191zM379.001 1444
l-355 -188v76l355 191v-79z" />
    <glyph glyph-name="uFDF2" unicode="&#xfedf;&#xfee0;&#xfeea;" horiz-adv-x="1928" arabic-form="isolated" 
d="M1116 2036c0 -37.333 -9.00098 -67 -27.001 -89c-5.33301 -6 -10 -9 -14 -9c-6 0 -9 5.33301 -9 16c0 4 1 9.33301 3 16c4.66699 16.667 3.33398 37.667 -3.99902 63c-1.33301 5.33301 -14 24 -38 56c0 1.33301 3.5 10.5 10.5 27.5s10.833 27.833 11.5 32.5
c44.667 -21.333 67 -59 67 -113zM1191 1907c0 -69.333 -25.334 -103.999 -76.001 -103.999c-18 0 -31.333 2 -40 6l-11 8c-23.333 -20.667 -46 -31 -68 -31c-35.333 0 -53.333 15.333 -54 46c-0.666992 20 9 45.333 29 76c5.33301 8 10.333 12 15 12c4 0 6 -4 6 -12
c0 -5.33301 -1.83301 -12.833 -5.5 -22.5s-5.5 -16.834 -5.5 -21.501c0 -14.667 12 -22 36 -22c19.333 0 33 7.66699 41 23c2.66699 4.66699 6.33398 19 11.001 43c2.66699 14 9.33398 21 20.001 21c8 0 11.333 -7.33301 10 -22
c-2.66699 -27.333 3.66602 -44.333 18.999 -51c13.333 -6 25 -3 35 9c5.33301 6 5 22.667 -1 50c-0.666992 2 9.33301 11.667 30 29c6 -10.667 9 -23 9 -37zM754.998 235.001l-0.000976562 785.001l-26 -66c-36.667 -114 -103.334 -187.333 -200.001 -220l-189 1
c-146 -16.667 -226.667 -92.334 -242 -227.001v-508h1730v1785l-30 -71c-42 -96 -85.333 -162.667 -130 -200c-19.333 -16 -38.666 -27.333 -57.999 -34v-1245l-322 1v1244c-19.333 6.66699 -38.666 17.667 -57.999 33c-44 38.667 -87 105.667 -129 201l-31 72l-1 -1551
h-314zM535.997 235.002h-217.999l-1 210c7.33301 38.667 45.666 57 114.999 55l104 1v-266z" />
    <glyph glyph-name="uFEF5" unicode="&#xfedf;&#xfe82;" horiz-adv-x="1242" arabic-form="isolated" 
d="M659 2078l23.001 -48c-47.333 -100.667 -107 -151 -179 -151c-24.667 0 -46.667 5.66699 -66 17c-5.33301 6 -12.666 9 -21.999 9c-30.667 0 -74.334 -31.333 -131.001 -94l9 125c64 77.333 114 116 150 116c20.667 0 34 -13 40 -39c9.33301 -8 19.666 -12 30.999 -12
c36 0 81.333 25.667 136 77h9zM1100 0l0.000976562 1786l-33 -71c-41.333 -95.333 -84.333 -162.333 -129 -201c-19.333 -16 -38.333 -27 -57 -33v-1262h-293c43.333 32 68 72.667 74 122v1444l-33 -71c-42 -95.333 -85 -162 -129 -200c-18.667 -16 -37.667 -26.667 -57 -32
v-1164c-10 -38.667 -61 -71.667 -153 -99c-26.667 -8 -53.334 -20.333 -80.001 -37c-64 -30.667 -120.667 -91.334 -170 -182.001h1060z" />
    <glyph glyph-name="uFEF6" unicode="&#xfee0;&#xfe82;" horiz-adv-x="1314" arabic-form="final" 
d="M1100 219l0.000976562 1567l-33 -71c-41.333 -95.333 -84.333 -162.333 -129 -201c-19.333 -16 -38.333 -27 -57 -33v-1262h-293c43.333 32 68 72.667 74 122v1444l-33 -71c-42 -95.333 -85 -162 -129 -200c-18.667 -16 -37.667 -26.667 -57 -32v-1164
c-10 -38.667 -61 -71.667 -153 -99c-26.667 -8 -53.334 -20.333 -80.001 -37c-64 -30.667 -120.667 -91.334 -170 -182.001h1275v219h-215zM659.001 2078l23.001 -48c-47.333 -100.667 -107 -151 -179 -151c-24.667 0 -46.667 5.66699 -66 17
c-5.33301 6 -12.666 9 -21.999 9c-30.667 0 -74.334 -31.333 -131.001 -94l9 125c64 77.333 114 116 150 116c20.667 0 34 -13 40 -39c9.33301 -8 19.666 -12 30.999 -12c36 0 81.333 25.667 136 77h9z" />
    <glyph glyph-name="uFEF7" unicode="&#xfedf;&#xfe84;" horiz-adv-x="1249" arabic-form="isolated" 
d="M572 2025l-0.00195312 -10c-30 -34.667 -45 -61.334 -45 -80.001c0.666992 -11.333 5.33398 -20.666 14.001 -27.999h94l45 -94h-309l49 94h38c-12 11.333 -15.667 23 -11 35c18.667 48.667 55.667 78.667 111 90c2.66699 0 7.33398 -2.33301 14.001 -7zM1100 0
l0.000976562 1786l-33 -71c-41.333 -95.333 -84.333 -162.333 -129 -201c-19.333 -16 -38.333 -27 -57 -33v-1262h-293c43.333 32 68 72.667 74 122v1444l-33 -71c-42 -95.333 -85 -162 -129 -200c-18.667 -16 -37.667 -26.667 -57 -32v-1164
c-10 -38.667 -61 -71.667 -153 -99c-26.667 -8 -53.334 -20.333 -80.001 -37c-64 -30.667 -120.667 -91.334 -170 -182.001h1060z" />
    <glyph glyph-name="uFEF8" unicode="&#xfee0;&#xfe84;" horiz-adv-x="1311" arabic-form="final" 
d="M569 2025l-0.00195312 -10c-30 -34.667 -45 -61.334 -45 -80.001c0.666992 -11.333 5.33398 -20.666 14.001 -27.999h94l45 -94h-309l49 94h38c-12 11.333 -15.667 23 -11 35c18.667 48.667 55.667 78.667 111 90c2.66699 0 7.33398 -2.33301 14.001 -7zM1097 219
l0.000976562 1567l-33 -71c-41.333 -95.333 -84.333 -162.333 -129 -201c-19.333 -16 -38.333 -27 -57 -33v-1262h-293c43.333 32 68 72.667 74 122v1444l-33 -71c-42 -95.333 -85 -162 -129 -200c-18.667 -16 -37.667 -26.667 -57 -32v-1164
c-10 -38.667 -61 -71.667 -153 -99c-26.667 -8 -53.334 -20.333 -80.001 -37c-64 -30.667 -120.667 -91.334 -170 -182.001h1275v219h-215z" />
    <glyph glyph-name="uFEF9" unicode="&#xfedf;&#xfe88;" horiz-adv-x="1253" arabic-form="isolated" 
d="M467 -88l-0.000976562 -7c-31.333 -38 -47 -67.333 -47 -88c1.33301 -11.333 7 -21.333 17 -30h98l47 -98h-328l51 98h40c-10 8 -13.333 20.333 -10 37c20.667 52 60 84.667 118 98c2.66699 0 7.33398 -3.33301 14.001 -10zM1100 0l0.000976562 1786l-33 -71
c-41.333 -95.333 -84.333 -162.333 -129 -201c-19.333 -16 -38.333 -27 -57 -33v-1262h-293c43.333 32 68 72.667 74 122v1444l-33 -71c-42 -95.333 -85 -162 -129 -200c-18.667 -16 -37.667 -26.667 -57 -32v-1164c-10 -38.667 -61 -71.667 -153 -99
c-26.667 -8 -53.334 -20.333 -80.001 -37c-64 -30.667 -120.667 -91.334 -170 -182.001h1060z" />
    <glyph glyph-name="uFEFA" unicode="&#xfee0;&#xfe88;" horiz-adv-x="1314" arabic-form="final" 
d="M467 -88l-0.000976562 -7c-31.333 -38 -47 -67.333 -47 -88c1.33301 -11.333 7 -21.333 17 -30h98l47 -98h-328l51 98h40c-10 8 -13.333 20.333 -10 37c20.667 52 60 84.667 118 98c2.66699 0 7.33398 -3.33301 14.001 -10zM1100 219l0.000976562 1567l-33 -71
c-41.333 -95.333 -84.333 -162.333 -129 -201c-19.333 -16 -38.333 -27 -57 -33v-1262h-293c43.333 32 68 72.667 74 122v1444l-33 -71c-42 -95.333 -85 -162 -129 -200c-18.667 -16 -37.667 -26.667 -57 -32v-1164c-10 -38.667 -61 -71.667 -153 -99
c-26.667 -8 -53.334 -20.333 -80.001 -37c-64 -30.667 -120.667 -91.334 -170 -182.001h1275v219h-215z" />
    <glyph glyph-name="uFEFB" unicode="&#xfedf;&#xfe8e;" horiz-adv-x="1244" arabic-form="isolated" 
d="M1100 0l0.000976562 1786l-33 -71c-41.333 -95.333 -84.333 -162.333 -129 -201c-19.333 -16 -38.333 -27 -57 -33v-1262h-293c43.333 32 68 72.667 74 122v1444l-33 -71c-42 -95.333 -85 -162 -129 -200c-18.667 -16 -37.667 -26.667 -57 -32v-1164
c-10 -38.667 -61 -71.667 -153 -99c-26.667 -8 -53.334 -20.333 -80.001 -37c-64 -30.667 -120.667 -91.334 -170 -182.001h1060z" />
    <glyph glyph-name="uFEFC" unicode="&#xfee0;&#xfe8e;" horiz-adv-x="1231" arabic-form="final" 
d="M1192 219l0.000976562 1567l-33 -71c-41.333 -95.333 -84.333 -162.333 -129 -201c-19.333 -16 -38.333 -27 -57 -33v-1262h-293c43.333 32 68 72.667 74 122v1444l-33 -71c-42 -95.333 -85 -162 -129 -200c-18.667 -16 -37.667 -26.667 -57 -32v-1164
c-10 -38.667 -61 -71.667 -153 -99c-26.667 -8 -53.334 -20.333 -80.001 -37c-64 -30.667 -120.667 -91.334 -170 -182.001h1275v219h-215z" />
    <glyph glyph-name="u0652_u064E.liga" unicode="&#x652;&#x64e;" horiz-adv-x="1" 
d="M147 1269v-293l-49 26l-2 294z" />
    <glyph glyph-name="u0652_u064B.liga" unicode="&#x652;&#x64b;" horiz-adv-x="1" 
d="M574 940c0 -6 -16.835 -25.167 -50.502 -57.5s-53.5 -48.5 -59.5 -48.5c-10 0 -45.667 30 -107 90c-63.333 -59.333 -100 -89 -110 -89c-6.66699 0 -27.334 16 -62.001 48s-52 51 -52 57s16.833 23.833 50.5 53.5s53.834 44.5 60.501 44.5
c8.66699 0 46.334 -29.667 113.001 -89c62.667 59.333 97.334 89 104.001 89c7.33301 0 28 -14.667 62 -44s51 -47.333 51 -54z" />
    <glyph glyph-name="u0652_u064D.liga" unicode="&#x652;&#x64d;" horiz-adv-x="1" 
d="M785 -690l-97 -90l-98 87l98 90zM572 -693l-100 -90l-95 89l98 90z" />
    <glyph glyph-name="u0622" unicode="&#x622;" horiz-adv-x="484" arabic-form="isolated" 
d="M323 -231l24 -71.001v1782c-18.667 6 -38 17 -58 33c-54.667 38.667 -100 105.334 -136 200.001l-25 71v-1784c18.667 -4.66699 38 -14.667 58 -30c54 -39.333 99.667 -106.333 137 -201zM414 2065l23.001 -48c-47.333 -100.667 -107 -151 -179 -151
c-24.667 0 -46.667 5.66699 -66 17c-5.33301 6 -12.666 9 -21.999 9c-30.667 0 -74.334 -31.333 -131.001 -94l9 125c64 77.333 114 116 150 116c20.667 0 34 -13 40 -39c9.33301 -8 19.666 -12 30.999 -12c36 0 81.333 25.667 136 77h9z" />
    <glyph glyph-name="u0623" unicode="&#x623;" horiz-adv-x="449" arabic-form="isolated" 
d="M323 -231l24 -71.001v1782c-18.667 6 -38 17 -58 33c-54.667 38.667 -100 105.334 -136 200.001l-25 71v-1784c18.667 -4.66699 38 -14.667 58 -30c54 -39.333 99.667 -106.333 137 -201zM257 2024l-0.00195312 -10c-30 -34.667 -45 -61.334 -45 -80.001
c0.666992 -11.333 5.33398 -20.666 14.001 -27.999h94l45 -94h-309l49 94h38c-12 11.333 -15.667 23 -11 35c18.667 48.667 55.667 78.667 111 90c2.66699 0 7.33398 -2.33301 14.001 -7z" />
    <glyph glyph-name="u0624" unicode="&#x624;" horiz-adv-x="827" arabic-form="isolated" 
d="M753 1019l-25.999 -65.999c-36.667 -114 -103.334 -187.333 -200.001 -220l-189 1c-146 -16.667 -226.667 -92.334 -242 -227.001v-507h438l1 -394c-65.333 -85.333 -160 -131 -284 -137c98.667 -34.667 183.667 -52 255 -52c152 0 234.333 67.667 247 203v1399z
M534.001 219.001h-218.999v225c7.33301 38.667 45.666 57 114.999 55l104 1v-281zM460.002 1476l-0.000976562 -7c-31.333 -38 -47 -67.333 -47 -88c1.33301 -11.333 7 -21.333 17 -30h98l47 -98h-328l51 98h40c-10 8 -13.333 20.333 -10 37c20.667 52 60 84.667 118 98
c2.66699 0 7.33398 -3.33301 14.001 -10z" />
    <glyph glyph-name="u0625" unicode="&#x625;" horiz-adv-x="435" arabic-form="isolated" 
d="M323 -231l24 -71.001v1782c-18.667 6 -38 17 -58 33c-54.667 38.667 -100 105.334 -136 200.001l-25 71v-1784c18.667 -4.66699 38 -14.667 58 -30c54 -39.333 99.667 -106.333 137 -201zM277 -301.001l-0.000976562 -7c-31.333 -38 -47 -67.333 -47 -88
c1.33301 -11.333 7 -21.333 17 -30h98l47 -98h-328l51 98h40c-10 8 -13.333 20.333 -10 37c20.667 52 60 84.667 118 98c2.66699 0 7.33398 -3.33301 14.001 -10z" />
    <glyph glyph-name="u0626" unicode="&#x626;" horiz-adv-x="1741" arabic-form="isolated" 
d="M1645 236l-593.999 659.999c-77.333 82 -172 123 -284 123c-50.667 0 -98.667 -9.66699 -144 -29c-104.667 -36 -175.334 -105 -212.001 -207c-27.333 -96 -3.33301 -185.667 72 -269l407 -450c36.667 -36.667 58 -82 64 -136c-26 -56 -80.333 -94.333 -163 -115
c-48.667 -11.333 -97 -14.333 -145 -9c-150.667 22 -257 71.667 -319 149c-63.333 88.667 -95 215.334 -95 380.001c0 54.667 5.33301 122.334 16 203.001c-10.667 -16 -25 -40 -43 -72c-48 -134 -72 -262.667 -72 -386c0 -114 28.667 -214.667 86 -302
c106 -120 227.333 -188 364 -204c32 -2.66699 63 -4 93 -4c197.333 0 356.333 74.667 477 224c57.333 108 57.666 209.333 0.999023 304c-63.333 66.667 -134.666 146 -213.999 238l-204 232c-112 112.667 -126.667 188.667 -44 228c62.667 34.667 122.334 26 179.001 -26
l554 -620v-452l33 70c41.333 95.333 84 162.666 128 201.999c19.333 16 38.666 26.667 57.999 32zM272.001 1477l-0.000976562 -7c-31.333 -38 -47 -67.333 -47 -88c1.33301 -11.333 7 -21.333 17 -30h98l47 -98h-328l51 98h40c-10 8 -13.333 20.333 -10 37
c20.667 52 60 84.667 118 98c2.66699 0 7.33398 -3.33301 14.001 -10z" />
    <glyph glyph-name="u0627" unicode="&#x627;" horiz-adv-x="443" arabic-form="isolated" 
d="M323 -231l24 -71.001v1782c-18.667 6 -38 17 -58 33c-54.667 38.667 -100 105.334 -136 200.001l-25 71v-1784c18.667 -4.66699 38 -14.667 58 -30c54 -39.333 99.667 -106.333 137 -201z" />
    <glyph glyph-name="u0628" unicode="&#x628;" horiz-adv-x="1797" arabic-form="isolated" 
d="M1700 0l-2.00098 714.001c-19.333 5.33301 -38.666 16 -57.999 32c-46 39.333 -89 106.666 -129 201.999l-32 71l1 -800h-1118v800l-32 -71c-40 -96 -83 -163 -129 -201c-19.333 -16 -38.333 -27 -57 -33v-714h1556zM1017 -334.999c0 -28 -9.5 -51.5 -28.5 -70.5
s-42.5 -28.5 -70.5 -28.5c-26.667 0 -49.667 9.5 -69 28.5s-29 42.5 -29 70.5c0 27.333 9.66699 50.666 29 69.999s42.333 29 69 29c28 0 51.5 -9.66699 70.5 -29s28.5 -42.666 28.5 -69.999z" />
    <glyph glyph-name="u0629" unicode="&#x629;" horiz-adv-x="830" arabic-form="isolated" 
d="M426 1351c0 -26.667 -9.66699 -49.667 -29 -69s-42.666 -29 -69.999 -29c-26.667 0 -49.667 9.66699 -69 29s-29 42.333 -29 69c0 27.333 9.66699 50.666 29 69.999s42.333 29 69 29c27.333 0 50.666 -9.66699 69.999 -29s29 -42.666 29 -69.999zM664 1351
c0 -26.667 -9.5 -49.667 -28.5 -69s-42.167 -29 -69.5 -29c-26.667 0 -49.5 9.66699 -68.5 29s-28.5 42.333 -28.5 69c0 27.333 9.5 50.666 28.5 69.999s41.833 29 68.5 29c27.333 0 50.5 -9.66699 69.5 -29s28.5 -42.666 28.5 -69.999zM755 0l0.000976562 1020l-26 -66
c-36.667 -114 -103.334 -187.333 -200.001 -220l-189 1c-146 -16.667 -226.667 -92.334 -242 -227.001v-508h657zM536.001 219.001h-218.999v226c7.33301 38.667 45.666 57 114.999 55l104 1v-282z" />
    <glyph glyph-name="u062A" unicode="&#x62a;" horiz-adv-x="1802" arabic-form="isolated" 
d="M899 1351c0 -26.667 -9.66699 -49.667 -29 -69s-42.666 -29 -69.999 -29c-26.667 0 -49.667 9.66699 -69 29s-29 42.333 -29 69c0 27.333 9.66699 50.666 29 69.999s42.333 29 69 29c27.333 0 50.666 -9.66699 69.999 -29s29 -42.666 29 -69.999zM1137 1351
c0 -26.667 -9.5 -49.667 -28.5 -69s-42.167 -29 -69.5 -29c-26.667 0 -49.5 9.66699 -68.5 29s-28.5 42.333 -28.5 69c0 27.333 9.5 50.666 28.5 69.999s41.833 29 68.5 29c27.333 0 50.5 -9.66699 69.5 -29s28.5 -42.666 28.5 -69.999zM1701 0l-2.00098 714.001
c-19.333 5.33301 -38.666 16 -57.999 32c-46 39.333 -89 106.666 -129 201.999l-32 71l1 -800h-1118v800l-32 -71c-40 -96 -83 -163 -129 -201c-19.333 -16 -38.333 -27 -57 -33v-714h1556z" />
    <glyph glyph-name="u062B" unicode="&#x62b;" horiz-adv-x="1802" arabic-form="isolated" 
d="M899 1351c0 -26.667 -9.66699 -49.667 -29 -69s-42.666 -29 -69.999 -29c-26.667 0 -49.667 9.66699 -69 29s-29 42.333 -29 69c0 27.333 9.66699 50.666 29 69.999s42.333 29 69 29c27.333 0 50.666 -9.66699 69.999 -29s29 -42.666 29 -69.999zM1137 1351
c0 -26.667 -9.5 -49.667 -28.5 -69s-42.167 -29 -69.5 -29c-26.667 0 -49.5 9.66699 -68.5 29s-28.5 42.333 -28.5 69c0 27.333 9.5 50.666 28.5 69.999s41.833 29 68.5 29c27.333 0 50.5 -9.66699 69.5 -29s28.5 -42.666 28.5 -69.999zM1018 1561
c0 -26.667 -9.66699 -49.667 -29 -69s-42.666 -29 -69.999 -29c-26.667 0 -49.667 9.66699 -69 29s-29 42.333 -29 69c0 27.333 9.66699 50.666 29 69.999s42.333 29 69 29c27.333 0 50.666 -9.66699 69.999 -29s29 -42.666 29 -69.999zM1701 0l-2.00098 714.001
c-19.333 5.33301 -38.666 16 -57.999 32c-46 39.333 -89 106.666 -129 201.999l-32 71l1 -800h-1118v800l-32 -71c-40 -96 -83 -163 -129 -201c-19.333 -16 -38.333 -27 -57 -33v-714h1556z" />
    <glyph glyph-name="u062C" unicode="&#x62c;" horiz-adv-x="1094" arabic-form="isolated" 
d="M446 0l233.002 0.00195312l95 -154c26.667 -13.333 55.667 -20 87 -20c11.333 0 25 0.5 41 1.5s27.667 1.83301 35 2.5c13.333 -0.666992 25.166 -3.66699 35.499 -9s16.166 -8 17.499 -8c8.66699 -0.666992 -6.33301 31.666 -45 96.999l-94 309l-137 613
c-16.667 35.333 -55 63.666 -115 84.999c-46 16 -89.667 25.667 -131 29c-96.667 12 -217.334 36 -362.001 72c118.667 -137.333 235.667 -223.666 351 -258.999l141 -540h-156c-123.333 -6 -210.666 -37 -261.999 -93c-60 -61.333 -90 -147 -90 -257
c0 -64 10 -125.333 30 -184c23.333 -65.333 76.333 -107.333 159 -126l216 -22c-112.667 57.333 -177.667 121 -195 191c-18.667 72.667 -17 132 5 178c31.333 51.333 78.333 82.666 141 93.999zM756.002 -334.998c0 -28 -9.5 -51.5 -28.5 -70.5s-42.5 -28.5 -70.5 -28.5
c-26.667 0 -49.667 9.5 -69 28.5s-29 42.5 -29 70.5c0 27.333 9.66699 50.666 29 69.999s42.333 29 69 29c28 0 51.5 -9.66699 70.5 -29s28.5 -42.666 28.5 -69.999z" />
    <glyph glyph-name="u062D" unicode="&#x62d;" horiz-adv-x="1095" arabic-form="isolated" 
d="M446 0l233.002 0.00195312l95 -154c26.667 -13.333 55.667 -20 87 -20c11.333 0 25 0.5 41 1.5s27.667 1.83301 35 2.5c13.333 -0.666992 25.166 -3.66699 35.499 -9s16.166 -8 17.499 -8c8.66699 -0.666992 -6.33301 31.666 -45 96.999l-94 309l-137 613
c-16.667 35.333 -55 63.666 -115 84.999c-46 16 -89.667 25.667 -131 29c-96.667 12 -217.334 36 -362.001 72c118.667 -137.333 235.667 -223.666 351 -258.999l141 -540h-156c-123.333 -6 -210.666 -37 -261.999 -93c-60 -61.333 -90 -147 -90 -257
c0 -64 10 -125.333 30 -184c23.333 -65.333 76.333 -107.333 159 -126l216 -22c-112.667 57.333 -177.667 121 -195 191c-18.667 72.667 -17 132 5 178c31.333 51.333 78.333 82.666 141 93.999z" />
    <glyph glyph-name="u062E" unicode="&#x62e;" horiz-adv-x="1083" arabic-form="isolated" 
d="M446 0l233.002 0.00195312l95 -154c26.667 -13.333 55.667 -20 87 -20c11.333 0 25 0.5 41 1.5s27.667 1.83301 35 2.5c13.333 -0.666992 25.166 -3.66699 35.499 -9s16.166 -8 17.499 -8c8.66699 -0.666992 -6.33301 31.666 -45 96.999l-94 309l-137 613
c-16.667 35.333 -55 63.666 -115 84.999c-46 16 -89.667 25.667 -131 29c-96.667 12 -217.334 36 -362.001 72c118.667 -137.333 235.667 -223.666 351 -258.999l141 -540h-156c-123.333 -6 -210.666 -37 -261.999 -93c-60 -61.333 -90 -147 -90 -257
c0 -64 10 -125.333 30 -184c23.333 -65.333 76.333 -107.333 159 -126l216 -22c-112.667 57.333 -177.667 121 -195 191c-18.667 72.667 -17 132 5 178c31.333 51.333 78.333 82.666 141 93.999zM536.002 1351c0 -28 -9.5 -51.5 -28.5 -70.5s-42.5 -28.5 -70.5 -28.5
c-26.667 0 -49.667 9.5 -69 28.5s-29 42.5 -29 70.5c0 27.333 9.66699 50.666 29 69.999s42.333 29 69 29c28 0 51.5 -9.66699 70.5 -29s28.5 -42.666 28.5 -69.999z" />
    <glyph glyph-name="u062F" unicode="&#x62f;" horiz-adv-x="1203" arabic-form="isolated" 
d="M1140 219l-0.000976562 798h-458c-5.33301 -18 -16 -37 -32 -57c-38.667 -54.667 -105.667 -100 -201 -136l-71 -25h542v-451c-1.33301 -69.333 -21.666 -112.333 -60.999 -129h-507c-34 -3.33301 -67.667 -13.333 -101 -30c-80 -29.333 -151 -92.333 -213 -189h882
c146 0 219.333 73 220 219z" />
    <glyph glyph-name="u0630" unicode="&#x630;" horiz-adv-x="1201" arabic-form="isolated" 
d="M946 1351c0 -28 -9.5 -51.5 -28.5 -70.5s-42.5 -28.5 -70.5 -28.5c-26.667 0 -49.667 9.5 -69 28.5s-29 42.5 -29 70.5c0 27.333 9.66699 50.666 29 69.999s42.333 29 69 29c28 0 51.5 -9.66699 70.5 -29s28.5 -42.666 28.5 -69.999zM1140 219l-0.000976562 798h-458
c-5.33301 -18 -16 -37 -32 -57c-38.667 -54.667 -105.667 -100 -201 -136l-71 -25h542v-451c-1.33301 -69.333 -21.666 -112.333 -60.999 -129h-507c-34 -3.33301 -67.667 -13.333 -101 -30c-80 -29.333 -151 -92.333 -213 -189h882c146 0 219.333 73 220 219z" />
    <glyph glyph-name="u0631" unicode="&#x631;" horiz-adv-x="565" arabic-form="isolated" 
d="M478 714c-18.667 6 -37.668 16.999 -57.001 32.999c-54.667 38.667 -100 105.334 -136 200.001l-25 72v-1413c-47.333 -85.333 -127 -131.333 -239 -138c89.333 -34.667 167 -52 233 -52c138.667 0 213.334 68 224.001 204v1094z" />
    <glyph glyph-name="u0632" unicode="&#x632;" horiz-adv-x="572" arabic-form="isolated" 
d="M467 1351c0 -28 -9.5 -51.5 -28.5 -70.5s-42.5 -28.5 -70.5 -28.5c-26.667 0 -49.667 9.5 -69 28.5s-29 42.5 -29 70.5c0 27.333 9.66699 50.666 29 69.999s42.333 29 69 29c28 0 51.5 -9.66699 70.5 -29s28.5 -42.666 28.5 -69.999zM478 714
c-18.667 6 -37.668 16.999 -57.001 32.999c-54.667 38.667 -100 105.334 -136 200.001l-25 72v-1413c-47.333 -85.333 -127 -131.333 -239 -138c89.333 -34.667 167 -52 233 -52c138.667 0 213.334 68 224.001 204v1094z" />
    <glyph glyph-name="u0633" unicode="&#x633;" horiz-adv-x="1998" arabic-form="isolated" 
d="M1887 0l-0.00195312 714.001c-20 5.33301 -39.333 16.333 -58 33c-44 37.333 -87.333 104.333 -130 201l-30 71l-1 -800h-196l1 494c-20 6.66699 -40 17.667 -60 33c-43.333 38.667 -86.333 105.667 -129 201l-30 71v-799h-198v494c-20 6.66699 -39.333 17.667 -58 33
c-44 38.667 -87 105.667 -129 201l-31 71v-1099c2.66699 -82 -34.666 -124.667 -111.999 -128c-278.667 -0.666992 -418.667 -1 -420 -1v69v470c-16.667 39.333 -34 72 -52 98c-46 59.333 -102 110.333 -168 153v-1029h786c32.667 5.33301 60.334 13.666 83.001 24.999
c56 24.667 89.667 68.667 101 132l1 292h830z" />
    <glyph glyph-name="u0634" unicode="&#x634;" horiz-adv-x="1998" arabic-form="isolated" 
d="M1289 1351c0 -26.667 -9.66699 -49.667 -29 -69s-42.666 -29 -69.999 -29c-26.667 0 -49.667 9.66699 -69 29s-29 42.333 -29 69c0 27.333 9.66699 50.666 29 69.999s42.333 29 69 29c27.333 0 50.666 -9.66699 69.999 -29s29 -42.666 29 -69.999zM1527 1351
c0 -26.667 -9.5 -49.667 -28.5 -69s-42.167 -29 -69.5 -29c-26.667 0 -49.5 9.66699 -68.5 29s-28.5 42.333 -28.5 69c0 27.333 9.5 50.666 28.5 69.999s41.833 29 68.5 29c27.333 0 50.5 -9.66699 69.5 -29s28.5 -42.666 28.5 -69.999zM1408 1561
c0 -26.667 -9.66699 -49.667 -29 -69s-42.666 -29 -69.999 -29c-26.667 0 -49.667 9.66699 -69 29s-29 42.333 -29 69c0 27.333 9.66699 50.666 29 69.999s42.333 29 69 29c27.333 0 50.666 -9.66699 69.999 -29s29 -42.666 29 -69.999zM1887 0l-0.00195312 714.001
c-20 5.33301 -39.333 16.333 -58 33c-44 37.333 -87.333 104.333 -130 201l-30 71l-1 -800h-196l1 494c-20 6.66699 -40 17.667 -60 33c-43.333 38.667 -86.333 105.667 -129 201l-30 71v-799h-198v494c-20 6.66699 -39.333 17.667 -58 33c-44 38.667 -87 105.667 -129 201
l-31 71v-1099c2.66699 -82 -34.666 -124.667 -111.999 -128c-278.667 -0.666992 -418.667 -1 -420 -1v69v470c-16.667 39.333 -34 72 -52 98c-46 59.333 -102 110.333 -168 153v-1029h786c32.667 5.33301 60.334 13.666 83.001 24.999c56 24.667 89.667 68.667 101 132
l1 292h830z" />
    <glyph glyph-name="u0635" unicode="&#x635;" horiz-adv-x="2137" arabic-form="isolated" 
d="M2040 0v963.999c-62.667 36 -129.334 54 -200.001 54c-150.667 0 -317 -80 -499 -240l-296 -249l-1 185c-19.333 6 -38.666 16.667 -57.999 32c-44.667 38.667 -87.667 105.667 -129 201l-31 72v-331v0v-165v-650v0c-10 -46.667 -29.667 -75 -59 -85h-452v71v488
c-16 26.667 -33.333 52.334 -52 77.001c-44 58 -100 108.333 -168 151l-1 -1020h783c31.333 4.66699 59 12.667 83 24c54.667 25.333 83 70 85 134v287h995zM1822 754.999l0.000976562 -536h-778c319.333 300 559.666 486.667 720.999 560c26.667 0 45.667 -8 57 -24z" />
    <glyph glyph-name="u0636" unicode="&#x636;" horiz-adv-x="2145" arabic-form="isolated" 
d="M1480 1351c0 -26.667 -9.66699 -49.667 -29 -69s-42.666 -29 -69.999 -29c-26.667 0 -49.667 9.66699 -69 29s-29 42.333 -29 69c0 27.333 9.66699 50.666 29 69.999s42.333 29 69 29c27.333 0 50.666 -9.66699 69.999 -29s29 -42.666 29 -69.999zM2040 0v963.999
c-62.667 36 -129.334 54 -200.001 54c-150.667 0 -317 -80 -499 -240l-296 -249l-1 185c-19.333 6 -38.666 16.667 -57.999 32c-44.667 38.667 -87.667 105.667 -129 201l-31 72v-331v0v-165v-650v0c-10 -46.667 -29.667 -75 -59 -85h-452v71v488
c-16 26.667 -33.333 52.334 -52 77.001c-44 58 -100 108.333 -168 151l-1 -1020h783c31.333 4.66699 59 12.667 83 24c54.667 25.333 83 70 85 134v287h995zM1822 754.999l0.000976562 -536h-778c319.333 300 559.666 486.667 720.999 560c26.667 0 45.667 -8 57 -24z" />
    <glyph glyph-name="u0637" unicode="&#x637;" horiz-adv-x="1718" arabic-form="isolated" 
d="M1620 0v963.001c-62.667 36 -129.334 54 -200.001 54c-150.667 0 -317 -80 -499 -240l-297 -249v954c-19.333 6 -38.666 16.667 -57.999 32c-44.667 38.667 -87.667 105.667 -129 201l-31 72v-1568h-57c-43.333 -2 -86.333 -13.333 -129 -34
c-74 -38.667 -135.333 -100.334 -184 -185.001h1584zM1402 754.001l0.000976562 -534.999h-778c319.333 299.333 559.666 485.666 720.999 558.999c26.667 0 45.667 -8 57 -24z" />
    <glyph glyph-name="u0638" unicode="&#x638;" horiz-adv-x="1719" arabic-form="isolated" 
d="M1620 0v963.001c-62.667 36 -129.334 54 -200.001 54c-150.667 0 -317 -80 -499 -240l-297 -249v954c-19.333 6 -38.666 16.667 -57.999 32c-44.667 38.667 -87.667 105.667 -129 201l-31 72v-1568h-57c-43.333 -2 -86.333 -13.333 -129 -34
c-74 -38.667 -135.333 -100.334 -184 -185.001h1584zM1402 754.001l0.000976562 -534.999h-778c319.333 299.333 559.666 485.666 720.999 558.999c26.667 0 45.667 -8 57 -24zM1060 1350c0 -26.667 -9.66699 -49.667 -29 -69s-42.666 -29 -69.999 -29
c-26.667 0 -49.667 9.66699 -69 29s-29 42.333 -29 69c0 27.333 9.66699 50.666 29 69.999s42.333 29 69 29c27.333 0 50.666 -9.66699 69.999 -29s29 -42.666 29 -69.999z" />
    <glyph glyph-name="u0639" unicode="&#x639;" horiz-adv-x="1150" arabic-form="isolated" 
d="M560 0l479.999 0.00292969v219h-393c-63.333 12.667 -122 61.334 -176 146.001c-44 92.667 -54.667 167 -32 223c18.667 92.667 76.334 144 173.001 154c96.667 3.33301 165 -52.334 205 -167.001c44.667 23.333 61.667 77.333 51 162c-5.33301 21.333 -31.333 49 -78 83
c24.667 20 54.334 68.667 89.001 146c3.33301 22 5 43.667 5 65c0 66.667 -19 120.667 -57 162c7.33301 -40 1.16602 -83.833 -18.501 -131.5s-56.5 -62.5 -110.5 -44.5c-166 16 -295.333 -27 -388 -129c-72 -86.667 -108 -183 -108 -289
c-2 -168.667 93.333 -310.667 286 -426c-92 -61.333 -155 -105.333 -189 -132c-68.667 -54 -121 -111.667 -157 -173c-39.333 -66.667 -59 -143 -59 -229c0 -84.667 19.667 -156.667 59 -216c104.667 -152.667 241.334 -226.334 410.001 -221.001
c77.333 2 149.833 25 217.5 69s118.167 95.667 151.5 155c32 60.667 44.333 118 37 172c-44 -76 -90 -135.667 -138 -179c-60.667 -52.667 -128.334 -81.334 -203.001 -86.001c-70 0.666992 -133.667 21 -191 61c-77.333 57.333 -116 139 -116 245
c0 30.667 3.33301 63 10 97c14.667 57.333 44.5 112.666 89.5 165.999s95.167 86 150.5 98z" />
    <glyph glyph-name="u063A" unicode="&#x63a;" horiz-adv-x="1138" arabic-form="isolated" 
d="M686 1353c0 -28 -9.5 -51.5 -28.5 -70.5s-42.5 -28.5 -70.5 -28.5c-26.667 0 -49.667 9.5 -69 28.5s-29 42.5 -29 70.5c0 27.333 9.66699 50.666 29 69.999s42.333 29 69 29c28 0 51.5 -9.66699 70.5 -29s28.5 -42.666 28.5 -69.999zM560 0l479.999 0.00292969v219h-393
c-63.333 12.667 -122 61.334 -176 146.001c-44 92.667 -54.667 167 -32 223c18.667 92.667 76.334 144 173.001 154c96.667 3.33301 165 -52.334 205 -167.001c44.667 23.333 61.667 77.333 51 162c-5.33301 21.333 -31.333 49 -78 83c24.667 20 54.334 68.667 89.001 146
c3.33301 22 5 43.667 5 65c0 66.667 -19 120.667 -57 162c7.33301 -40 1.16602 -83.833 -18.501 -131.5s-56.5 -62.5 -110.5 -44.5c-166 16 -295.333 -27 -388 -129c-72 -86.667 -108 -183 -108 -289c-2 -168.667 93.333 -310.667 286 -426
c-92 -61.333 -155 -105.333 -189 -132c-68.667 -54 -121 -111.667 -157 -173c-39.333 -66.667 -59 -143 -59 -229c0 -84.667 19.667 -156.667 59 -216c104.667 -152.667 241.334 -226.334 410.001 -221.001c77.333 2 149.833 25 217.5 69s118.167 95.667 151.5 155
c32 60.667 44.333 118 37 172c-44 -76 -90 -135.667 -138 -179c-60.667 -52.667 -128.334 -81.334 -203.001 -86.001c-70 0.666992 -133.667 21 -191 61c-77.333 57.333 -116 139 -116 245c0 30.667 3.33301 63 10 97c14.667 57.333 44.5 112.666 89.5 165.999
s95.167 86 150.5 98z" />
    <glyph glyph-name="u0641" unicode="&#x641;" horiz-adv-x="1778" arabic-form="isolated" 
d="M1691 0v1005c-19.333 6.66699 -39 17.667 -59 33c-43.333 38.667 -86 106 -128 202l-32 70l1 -347c-68 38.667 -141.667 58 -221 58c-120.667 0 -223.5 -41.333 -308.5 -124s-127.5 -181.667 -127.5 -297c0 -76 19.833 -146.5 59.5 -211.5s92.5 -121.5 158.5 -169.5h-705
l1 237v0c1.33301 106.667 2 209 2 307c-4 31.333 -14 62.333 -30 93c-38.667 73.333 -102.667 127 -192 161v-1017h1581zM1060 409c-48.667 48 -73.001 105.667 -73.001 173c0 68 24.333 126 73 174s107.334 72 176.001 72c69.333 0 126.5 -22 171.5 -66
s66.833 -103.667 65.5 -179c2 -76 -19.667 -136 -65 -180s-102.666 -66 -171.999 -66c-68.667 0 -127.334 24 -176.001 72zM1290 1350c0 -26.667 -9.66699 -49.667 -29 -69s-42.666 -29 -69.999 -29c-26.667 0 -49.667 9.66699 -69 29s-29 42.333 -29 69
c0 27.333 9.66699 50.666 29 69.999s42.333 29 69 29c27.333 0 50.666 -9.66699 69.999 -29s29 -42.666 29 -69.999z" />
    <glyph glyph-name="u0642" unicode="&#x642;" horiz-adv-x="1766" arabic-form="isolated" 
d="M1150 1351c0 -26.667 -9.66699 -49.667 -29 -69s-42.666 -29 -69.999 -29c-26.667 0 -49.667 9.66699 -69 29s-29 42.333 -29 69c0 27.333 9.66699 50.666 29 69.999s42.333 29 69 29c27.333 0 50.666 -9.66699 69.999 -29s29 -42.666 29 -69.999zM1388 1351
c0 -26.667 -9.5 -49.667 -28.5 -69s-42.167 -29 -69.5 -29c-26.667 0 -49.5 9.66699 -68.5 29s-28.5 42.333 -28.5 69c0 27.333 9.5 50.666 28.5 69.999s41.833 29 68.5 29c27.333 0 50.5 -9.66699 69.5 -29s28.5 -42.666 28.5 -69.999zM1691 0v1005
c-19.333 6.66699 -39 17.667 -59 33c-43.333 38.667 -86 106 -128 202l-32 70l1 -347c-68 38.667 -141.667 58 -221 58c-120.667 0 -223.5 -41.333 -308.5 -124s-127.5 -181.667 -127.5 -297c0 -76 19.833 -146.5 59.5 -211.5s92.5 -121.5 158.5 -169.5h-705l1 237v0
c1.33301 106.667 2 209 2 307c-4 31.333 -14 62.333 -30 93c-38.667 73.333 -102.667 127 -192 161v-1017h1581zM1060 409c-48.667 48 -73.001 105.667 -73.001 173c0 68 24.333 126 73 174s107.334 72 176.001 72c69.333 0 126.5 -22 171.5 -66s66.833 -103.667 65.5 -179
c2 -76 -19.667 -136 -65 -180s-102.666 -66 -171.999 -66c-68.667 0 -127.334 24 -176.001 72z" />
    <glyph glyph-name="u0643" unicode="&#x643;" horiz-adv-x="1326" arabic-form="isolated" 
d="M1236 0v1481c-19.333 5.33301 -38.666 16 -57.999 32c-46 38.667 -89 105.667 -129 201l-32 71v-1566h-706v500c-1.33301 32 -10 63.667 -26 95c-42.667 76 -107.334 144 -194.001 204v-1018h1145zM682 1241l-0.000976562 -7c-31.333 -38 -47 -67.333 -47 -88
c1.33301 -11.333 7 -21.333 17 -30h98l47 -98h-328l51 98h40c-10 8 -13.333 20.333 -10 37c20.667 52 60 84.667 118 98c2.66699 0 7.33398 -3.33301 14.001 -10z" />
    <glyph glyph-name="u0644" unicode="&#x644;" horiz-adv-x="1098" arabic-form="isolated" 
d="M1034 1481c-19.333 5.33301 -38.666 16 -57.999 32c-46 38.667 -89 105.667 -129 201l-32 71c0 -1269.33 0 -1902.33 0 -1899c-12 -57.333 -54.333 -85.333 -127 -84h-371v592c-1.33301 32 -10 63.667 -26 95c-42.667 76 -107.334 144 -194.001 204v-1110h789
c92 2 141.333 64.667 148 188v1710z" />
    <glyph glyph-name="u0645" unicode="&#x645;" horiz-adv-x="973" arabic-form="isolated" 
d="M248 -394l-0.000976562 1414l26 -66c36.667 -114 103.334 -187.333 200.001 -220l189 1c146 -16.667 226.667 -92.334 242 -227.001v-508h-438v-380c-10.667 -137.333 -85.667 -205.666 -225 -204.999c-65.333 -0.666992 -142.333 17 -231 53
c112 6.66699 191 52.667 237 138zM466.999 219h218.999v226c-7.33301 38.667 -45.666 57 -114.999 55l-104 1v-282z" />
    <glyph glyph-name="u0646" unicode="&#x646;" horiz-adv-x="1153" arabic-form="isolated" 
d="M1035 663c0.666992 0 0.998047 -0.666016 0.998047 -1.99902v38c-19.333 3.33301 -38.666 13.333 -57.999 30c-47.333 39.333 -92 106.666 -134 201.999l-28 70v-1114c-8 -56 -48 -84 -120 -84h-378l1 955l-31 -72c-50 -146 -113 -223.333 -189 -232l-1 -870h789
c90.667 0 140.334 58.333 149.001 175zM650.998 894.001c0 -28.667 -9.83301 -52.834 -29.5 -72.501s-43.834 -29.5 -72.501 -29.5s-53.167 9.83301 -73.5 29.5s-30.5 43.834 -30.5 72.501s10.167 53 30.5 73s44.833 30 73.5 30s52.834 -10 72.501 -30
s29.5 -44.333 29.5 -73z" />
    <glyph glyph-name="u0647" unicode="&#x647;" horiz-adv-x="833" arabic-form="isolated" 
d="M755 0l0.000976562 1020l-26 -66c-36.667 -114 -103.334 -187.333 -200.001 -220l-189 1c-146 -16.667 -226.667 -92.334 -242 -227.001v-508h657zM536.001 219.001h-218.999v226c7.33301 38.667 45.666 57 114.999 55l104 1v-282z" />
    <glyph glyph-name="u0648" unicode="&#x648;" horiz-adv-x="827" arabic-form="isolated" 
d="M753 1019l-25.999 -65.999c-36.667 -114 -103.334 -187.333 -200.001 -220l-189 1c-146 -16.667 -226.667 -92.334 -242 -227.001v-507h438l1 -394c-65.333 -85.333 -160 -131 -284 -137c98.667 -34.667 183.667 -52 255 -52c152 0 234.333 67.667 247 203v1399z
M534.001 219.001h-218.999v225c7.33301 38.667 45.666 57 114.999 55l104 1v-281z" />
    <glyph glyph-name="u0649" unicode="&#x649;" horiz-adv-x="1734" arabic-form="isolated" 
d="M1645 236l-593.999 659.999c-77.333 82 -172 123 -284 123c-50.667 0 -98.667 -9.66699 -144 -29c-104.667 -36 -175.334 -105 -212.001 -207c-27.333 -96 -3.33301 -185.667 72 -269l407 -450c36.667 -36.667 58 -82 64 -136c-26 -56 -80.333 -94.333 -163 -115
c-48.667 -11.333 -97 -14.333 -145 -9c-150.667 22 -257 71.667 -319 149c-63.333 88.667 -95 215.334 -95 380.001c0 54.667 5.33301 122.334 16 203.001c-10.667 -16 -25 -40 -43 -72c-48 -134 -72 -262.667 -72 -386c0 -114 28.667 -214.667 86 -302
c106 -120 227.333 -188 364 -204c32 -2.66699 63 -4 93 -4c197.333 0 356.333 74.667 477 224c57.333 108 57.666 209.333 0.999023 304c-63.333 66.667 -134.666 146 -213.999 238l-204 232c-112 112.667 -126.667 188.667 -44 228c62.667 34.667 122.334 26 179.001 -26
l554 -620v-452l33 70c41.333 95.333 84 162.666 128 201.999c19.333 16 38.666 26.667 57.999 32z" />
    <glyph glyph-name="u064A" unicode="&#x64a;" horiz-adv-x="1741" arabic-form="isolated" 
d="M661 -767c0 -26.667 -9.66699 -49.667 -29 -69s-42.666 -29 -69.999 -29c-26.667 0 -49.667 9.66699 -69 29s-29 42.333 -29 69c0 27.333 9.66699 50.666 29 69.999s42.333 29 69 29c27.333 0 50.666 -9.66699 69.999 -29s29 -42.666 29 -69.999zM899 -767
c0 -26.667 -9.5 -49.667 -28.5 -69s-42.167 -29 -69.5 -29c-26.667 0 -49.5 9.66699 -68.5 29s-28.5 42.333 -28.5 69c0 27.333 9.5 50.666 28.5 69.999s41.833 29 68.5 29c27.333 0 50.5 -9.66699 69.5 -29s28.5 -42.666 28.5 -69.999zM1645 236l-593.999 659.999
c-77.333 82 -172 123 -284 123c-50.667 0 -98.667 -9.66699 -144 -29c-104.667 -36 -175.334 -105 -212.001 -207c-27.333 -96 -3.33301 -185.667 72 -269l407 -450c36.667 -36.667 58 -82 64 -136c-26 -56 -80.333 -94.333 -163 -115c-48.667 -11.333 -97 -14.333 -145 -9
c-150.667 22 -257 71.667 -319 149c-63.333 88.667 -95 215.334 -95 380.001c0 54.667 5.33301 122.334 16 203.001c-10.667 -16 -25 -40 -43 -72c-48 -134 -72 -262.667 -72 -386c0 -114 28.667 -214.667 86 -302c106 -120 227.333 -188 364 -204c32 -2.66699 63 -4 93 -4
c197.333 0 356.333 74.667 477 224c57.333 108 57.666 209.333 0.999023 304c-63.333 66.667 -134.666 146 -213.999 238l-204 232c-112 112.667 -126.667 188.667 -44 228c62.667 34.667 122.334 26 179.001 -26l554 -620v-452l33 70c41.333 95.333 84 162.666 128 201.999
c19.333 16 38.666 26.667 57.999 32z" />
    <glyph glyph-name="u067E" unicode="&#x67e;" arabic-form="isolated" 
 />
    <glyph glyph-name="u0686" unicode="&#x686;" arabic-form="isolated" 
 />
    <glyph glyph-name="u0698" unicode="&#x698;" arabic-form="isolated" 
 />
    <glyph glyph-name="u06AF" unicode="&#x6af;" arabic-form="isolated" 
 />
    <glyph glyph-name="uFB57" unicode="&#x67e;" arabic-form="final" 
 />
    <glyph glyph-name="uFB58" unicode="&#x67e;" arabic-form="initial" 
 />
    <glyph glyph-name="uFB59" unicode="&#x67e;" arabic-form="medial" 
 />
    <glyph glyph-name="uFB7B" unicode="&#x686;" arabic-form="final" 
 />
    <glyph glyph-name="uFB7C" unicode="&#x686;" arabic-form="initial" 
 />
    <glyph glyph-name="uFB7D" unicode="&#x686;" arabic-form="medial" 
 />
    <glyph glyph-name="uFB8B" unicode="&#x698;" arabic-form="final" 
 />
    <glyph glyph-name="uFEDA" unicode="&#x6a9;" horiz-adv-x="1453" arabic-form="final" 
d="M1454 219h-218v1262c-19.333 5.33301 -38.666 16 -57.999 32c-46 38.667 -89 105.667 -129 201l-32 71v-1566h-706v500c-1.33301 32 -10 63.667 -26 95c-42.667 76 -107.334 144 -194.001 204v-1018h1363v219zM682 1241l-0.000976562 -7c-31.333 -38 -47 -67.333 -47 -88
c1.33301 -11.333 7 -21.333 17 -30h98l47 -98h-328l51 98h40c-10 8 -13.333 20.333 -10 37c20.667 52 60 84.667 118 98c2.66699 0 7.33398 -3.33301 14.001 -10z" />
    <glyph glyph-name="uFEDB" unicode="&#x6a9;" horiz-adv-x="1652" arabic-form="initial" 
d="M1518 0v861c0 98 -67 150.667 -201 158h-764l401 400c-10 18 -16.333 39.333 -19 64c-4 58 12.667 134.333 50 229l30 76l-773 -771v-216h955c64 -14.667 97.667 -51 101 -109l1 -473h-1300v-219h1519z" />
    <glyph glyph-name="uFEDC" unicode="&#x6a9;" horiz-adv-x="1873" arabic-form="medial" 
d="M1518 219v642c0 98 -67 150.667 -201 158h-764l401 400c-10 18 -16.333 39.333 -19 64c-4 58 12.667 134.333 50 229l30 76l-773 -771v-216h955c64 -14.667 97.667 -51 101 -109l1 -473h-1300v-219h1875v219h-356z" />
    <glyph glyph-name="uFB93" unicode="&#x6af;" arabic-form="final" 
 />
    <glyph glyph-name="uFB94" unicode="&#x6af;" arabic-form="initial" 
 />
    <glyph glyph-name="uFB95" unicode="&#x6af;" arabic-form="medial" 
 />
    <glyph glyph-name="uFE94" unicode="&#x6c0;" horiz-adv-x="1004" arabic-form="final" 
d="M755 219l0.000976562 801.001l-26 -66c-36.667 -114 -103.334 -187.333 -200.001 -220l-189 1c-146 -16.667 -226.667 -92.334 -242 -227.001v-508h907v219h-250zM536.001 219.001h-218.999v226c7.33301 38.667 45.666 57 114.999 55l104 1v-282zM426.002 1351
c0 -26.667 -9.66699 -49.667 -29 -69s-42.666 -29 -69.999 -29c-26.667 0 -49.667 9.66699 -69 29s-29 42.333 -29 69c0 27.333 9.66699 50.666 29 69.999s42.333 29 69 29c27.333 0 50.666 -9.66699 69.999 -29s29 -42.666 29 -69.999zM664.002 1351
c0 -26.667 -9.5 -49.667 -28.5 -69s-42.167 -29 -69.5 -29c-26.667 0 -49.5 9.66699 -68.5 29s-28.5 42.333 -28.5 69c0 27.333 9.5 50.666 28.5 69.999s41.833 29 68.5 29c27.333 0 50.5 -9.66699 69.5 -29s28.5 -42.666 28.5 -69.999z" />
    <glyph glyph-name="uFEF2" unicode="&#x6cc;" horiz-adv-x="1826" arabic-form="final" 
d="M661 -767c0 -26.667 -9.66699 -49.667 -29 -69s-42.666 -29 -69.999 -29c-26.667 0 -49.667 9.66699 -69 29s-29 42.333 -29 69c0 27.333 9.66699 50.666 29 69.999s42.333 29 69 29c27.333 0 50.666 -9.66699 69.999 -29s29 -42.666 29 -69.999zM899 -767
c0 -26.667 -9.5 -49.667 -28.5 -69s-42.167 -29 -69.5 -29c-26.667 0 -49.5 9.66699 -68.5 29s-28.5 42.333 -28.5 69c0 27.333 9.5 50.666 28.5 69.999s41.833 29 68.5 29c27.333 0 50.5 -9.66699 69.5 -29s28.5 -42.666 28.5 -69.999zM1645 219l-594 676.998
c-77.333 82 -172 123 -284 123c-50.667 0 -98.667 -9.66699 -144 -29c-104.667 -36 -175.334 -105 -212.001 -207c-27.333 -96 -3.33301 -185.667 72 -269l407 -450c36.667 -36.667 58 -82 64 -136c-26 -56 -80.333 -94.333 -163 -115c-48.667 -11.333 -97 -14.333 -145 -9
c-150.667 22 -257 71.667 -319 149c-63.333 88.667 -95 215.334 -95 380.001c0 54.667 5.33301 122.334 16 203.001c-10.667 -16 -25 -40 -43 -72c-48 -134 -72 -262.667 -72 -386c0 -114 28.667 -214.667 86 -302c106 -120 227.333 -188 364 -204c32 -2.66699 63 -4 93 -4
c197.333 0 356.333 74.667 477 224c57.333 108 57.666 209.333 0.999023 304c-63.333 66.667 -134.666 146 -213.999 238l-204 232c-112 112.667 -126.667 188.667 -44 228c62.667 34.667 122.334 26 179.001 -26l479 -532l203 -236h274v219h-182z" />
    <glyph glyph-name="uFEF3" unicode="&#x6cc;" horiz-adv-x="624" arabic-form="initial" 
d="M250 -334c0 -26.667 -9.66699 -49.667 -29 -69s-42.666 -29 -69.999 -29c-26.667 0 -49.667 9.66699 -69 29s-29 42.333 -29 69c0 27.333 9.66699 50.666 29 69.999s42.333 29 69 29c27.333 0 50.666 -9.66699 69.999 -29s29 -42.666 29 -69.999zM488 -334
c0 -26.667 -9.5 -49.667 -28.5 -69s-42.167 -29 -69.5 -29c-26.667 0 -49.5 9.66699 -68.5 29s-28.5 42.333 -28.5 69c0 27.333 9.5 50.666 28.5 69.999s41.833 29 68.5 29c27.333 0 50.5 -9.66699 69.5 -29s28.5 -42.666 28.5 -69.999zM528 0v714c-20 6 -39.667 17 -59 33
c-44 38 -87 105 -129 201l-31 71v-800h-310v-219h529z" />
    <glyph glyph-name="uFEF4" unicode="&#x6cc;" horiz-adv-x="844" arabic-form="medial" 
d="M250 -334c0 -26.667 -9.66699 -49.667 -29 -69s-42.666 -29 -69.999 -29c-26.667 0 -49.667 9.66699 -69 29s-29 42.333 -29 69c0 27.333 9.66699 50.666 29 69.999s42.333 29 69 29c27.333 0 50.666 -9.66699 69.999 -29s29 -42.666 29 -69.999zM488 -334
c0 -26.667 -9.5 -49.667 -28.5 -69s-42.167 -29 -69.5 -29c-26.667 0 -49.5 9.66699 -68.5 29s-28.5 42.333 -28.5 69c0 27.333 9.5 50.666 28.5 69.999s41.833 29 68.5 29c27.333 0 50.5 -9.66699 69.5 -29s28.5 -42.666 28.5 -69.999zM528 219v495
c-20 6 -39.667 17 -59 33c-44 38 -87 105 -129 201l-31 71v-800h-310v-219h846v219h-317z" />
    <glyph glyph-name="Hcircumflex" unicode="&#x622;" horiz-adv-x="622" arabic-form="final" 
d="M434 2064l23.001 -48c-47.333 -100.667 -107 -151 -179 -151c-24.667 0 -46.667 5.66699 -66 17c-5.33301 6 -12.666 9 -21.999 9c-30.667 0 -74.334 -31.333 -131.001 -94l9 125c64 77.333 114 116 150 116c20.667 0 34 -13 40 -39c9.33301 -8 19.666 -12 30.999 -12
c36 0 81.333 25.667 136 77h9zM346.001 219l-0.000976562 1250c-19.333 6 -38.666 17 -57.999 33c-54.667 38.667 -99.667 105 -135 199l-25 70v-1771h495v219h-277z" />
    <glyph glyph-name="uFE84" unicode="&#x623;" horiz-adv-x="622" arabic-form="final" 
d="M257 2023l-0.00195312 -10c-30 -34.667 -45 -61.334 -45 -80.001c0.666992 -11.333 5.33398 -20.666 14.001 -27.999h94l45 -94h-309l49 94h38c-12 11.333 -15.667 23 -11 35c18.667 48.667 55.667 78.667 111 90c2.66699 0 7.33398 -2.33301 14.001 -7zM345.998 219
l-0.000976562 1250c-19.333 6 -38.666 17 -57.999 33c-54.667 38.667 -99.667 105 -135 199l-25 70v-1771h495v219h-277z" />
    <glyph glyph-name="uFE86" unicode="&#x624;" horiz-adv-x="1004" arabic-form="final" 
d="M462 1476l-0.000976562 -7c-31.333 -38 -47 -67.333 -47 -88c1.33301 -11.333 7 -21.333 17 -30h98l47 -98h-328l51 98h40c-10 8 -13.333 20.333 -10 37c20.667 52 60 84.667 118 98c2.66699 0 7.33398 -3.33301 14.001 -10zM754.999 219l0.000976562 800.001l-26 -66
c-36.667 -114 -103.334 -187.333 -200.001 -220l-189 1c-146 -16.667 -226.667 -92.334 -242 -227.001v-507h438l1 -394c-65.333 -85.333 -160 -131 -284 -137c98.667 -34.667 183.667 -52 255 -52c152 0 234.333 67.667 247 203v380h250v219h-250zM536 219.001h-218.999
v225c7.33301 38.667 45.666 57 114.999 55l104 1v-281z" />
    <glyph glyph-name="uFE88" unicode="&#x625;" horiz-adv-x="622" arabic-form="final" 
d="M307 -89l-0.000976562 -7c-31.333 -38 -47 -67.333 -47 -88c1.33301 -11.333 7 -21.333 17 -30h98l47 -98h-328l51 98h40c-10 8 -13.333 20.333 -10 37c20.667 52 60 84.667 118 98c2.66699 0 7.33398 -3.33301 14.001 -10zM345.999 219l-0.000976562 1250
c-19.333 6 -38.666 17 -57.999 33c-54.667 38.667 -99.667 105 -135 199l-25 70v-1771h495v219h-277z" />
    <glyph glyph-name="uFE8A" unicode="&#x626;" horiz-adv-x="1826" arabic-form="final" 
d="M272 1477l-0.000976562 -7c-31.333 -38 -47 -67.333 -47 -88c1.33301 -11.333 7 -21.333 17 -30h98l47 -98h-328l51 98h40c-10 8 -13.333 20.333 -10 37c20.667 52 60 84.667 118 98c2.66699 0 7.33398 -3.33301 14.001 -10zM1645 219l-594 676.998
c-77.333 82 -172 123 -284 123c-50.667 0 -98.667 -9.66699 -144 -29c-104.667 -36 -175.334 -105 -212.001 -207c-27.333 -96 -3.33301 -185.667 72 -269l407 -450c36.667 -36.667 58 -82 64 -136c-26 -56 -80.333 -94.333 -163 -115c-48.667 -11.333 -97 -14.333 -145 -9
c-150.667 22 -257 71.667 -319 149c-63.333 88.667 -95 215.334 -95 380.001c0 54.667 5.33301 122.334 16 203.001c-10.667 -16 -25 -40 -43 -72c-48 -134 -72 -262.667 -72 -386c0 -114 28.667 -214.667 86 -302c106 -120 227.333 -188 364 -204c32 -2.66699 63 -4 93 -4
c197.333 0 356.333 74.667 477 224c57.333 108 57.666 209.333 0.999023 304c-63.333 66.667 -134.666 146 -213.999 238l-204 232c-112 112.667 -126.667 188.667 -44 228c62.667 34.667 122.334 26 179.001 -26l479 -532l203 -236h274v219h-182z" />
    <glyph glyph-name="uFE8B" unicode="&#x626;" horiz-adv-x="602" arabic-form="initial" 
d="M528 0v714c-20 6 -39.667 17 -59 33c-44 38 -87 105 -129 201l-31 71v-800h-310v-219h529zM302 1476l-0.000976562 -7c-31.333 -38 -47 -67.333 -47 -88c1.33301 -11.333 7 -21.333 17 -30h98l47 -98h-328l51 98h40c-10 8 -13.333 20.333 -10 37
c20.667 52 60 84.667 118 98c2.66699 0 7.33398 -3.33301 14.001 -10z" />
    <glyph glyph-name="uFE8C" unicode="&#x626;" horiz-adv-x="844" arabic-form="medial" 
d="M528 219v495c-20 6 -39.667 17 -59 33c-44 38 -87 105 -129 201l-31 71v-800h-310v-219h846v219h-317zM402 1476l-0.000976562 -7c-31.333 -38 -47 -67.333 -47 -88c1.33301 -11.333 7 -21.333 17 -30h98l47 -98h-328l51 98h40c-10 8 -13.333 20.333 -10 37
c20.667 52 60 84.667 118 98c2.66699 0 7.33398 -3.33301 14.001 -10z" />
    <glyph glyph-name="uFE8E" unicode="&#x627;" horiz-adv-x="622" arabic-form="final" 
d="M345 219l-0.000976562 1250c-19.333 6 -38.666 17 -57.999 33c-54.667 38.667 -99.667 105 -135 199l-25 70v-1771h495v219h-277z" />
    <glyph glyph-name="uFE90" unicode="&#x628;" horiz-adv-x="2017" arabic-form="final" 
d="M1699 219l-0.000976562 495.001c-19.333 5.33301 -38.666 16 -57.999 32c-46 39.333 -89 106.666 -129 201.999l-32 71l1 -800h-1118v800l-32 -71c-40 -96 -83 -163 -129 -201c-19.333 -16 -38.333 -27 -57 -33l-1 -714h1874v219h-319zM1018 -334.999
c0 -28 -9.5 -51.5 -28.5 -70.5s-42.5 -28.5 -70.5 -28.5c-26.667 0 -49.667 9.5 -69 28.5s-29 42.5 -29 70.5c0 27.333 9.66699 50.666 29 69.999s42.333 29 69 29c28 0 51.5 -9.66699 70.5 -29s28.5 -42.666 28.5 -69.999z" />
    <glyph glyph-name="uFE91" unicode="&#x628;" horiz-adv-x="599" arabic-form="initial" 
d="M386 -335c0 -28 -9.5 -51.5 -28.5 -70.5s-42.5 -28.5 -70.5 -28.5c-26.667 0 -49.667 9.5 -69 28.5s-29 42.5 -29 70.5c0 27.333 9.66699 50.666 29 69.999s42.333 29 69 29c28 0 51.5 -9.66699 70.5 -29s28.5 -42.666 28.5 -69.999zM528 0v714c-20 6 -39.667 17 -59 33
c-44 38 -87 105 -129 201l-31 71v-800h-310v-219h529z" />
    <glyph glyph-name="uFE92" unicode="&#x628;" horiz-adv-x="844" arabic-form="medial" 
d="M516 -335c0 -28 -9.5 -51.5 -28.5 -70.5s-42.5 -28.5 -70.5 -28.5c-26.667 0 -49.667 9.5 -69 28.5s-29 42.5 -29 70.5c0 27.333 9.66699 50.666 29 69.999s42.333 29 69 29c28 0 51.5 -9.66699 70.5 -29s28.5 -42.666 28.5 -69.999zM528 219v495
c-20 6 -39.667 17 -59 33c-44 38 -87 105 -129 201l-31 71v-800h-310v-219h846v219h-317z" />
    <glyph glyph-name="uFE96" unicode="&#x62a;" horiz-adv-x="2018" arabic-form="final" 
d="M900 1351c0 -26.667 -9.66699 -49.667 -29 -69s-42.666 -29 -69.999 -29c-26.667 0 -49.667 9.66699 -69 29s-29 42.333 -29 69c0 27.333 9.66699 50.666 29 69.999s42.333 29 69 29c27.333 0 50.666 -9.66699 69.999 -29s29 -42.666 29 -69.999zM1138 1351
c0 -26.667 -9.5 -49.667 -28.5 -69s-42.167 -29 -69.5 -29c-26.667 0 -49.5 9.66699 -68.5 29s-28.5 42.333 -28.5 69c0 27.333 9.5 50.666 28.5 69.999s41.833 29 68.5 29c27.333 0 50.5 -9.66699 69.5 -29s28.5 -42.666 28.5 -69.999zM1700 219l-0.000976562 495.001
c-19.333 5.33301 -38.666 16 -57.999 32c-46 39.333 -89 106.666 -129 201.999l-32 71l1 -800h-1118v800l-32 -71c-40 -96 -83 -163 -129 -201c-19.333 -16 -38.333 -27 -57 -33l-1 -714h1874v219h-319z" />
    <glyph glyph-name="uFE97" unicode="&#x62a;" horiz-adv-x="602" arabic-form="initial" 
d="M260 1351c0 -26.667 -9.66699 -49.667 -29 -69s-42.666 -29 -69.999 -29c-26.667 0 -49.667 9.66699 -69 29s-29 42.333 -29 69c0 27.333 9.66699 50.666 29 69.999s42.333 29 69 29c27.333 0 50.666 -9.66699 69.999 -29s29 -42.666 29 -69.999zM498 1351
c0 -26.667 -9.5 -49.667 -28.5 -69s-42.167 -29 -69.5 -29c-26.667 0 -49.5 9.66699 -68.5 29s-28.5 42.333 -28.5 69c0 27.333 9.5 50.666 28.5 69.999s41.833 29 68.5 29c27.333 0 50.5 -9.66699 69.5 -29s28.5 -42.666 28.5 -69.999zM528 0v714c-20 6 -39.667 17 -59 33
c-44 38 -87 105 -129 201l-31 71v-800h-310v-219h529z" />
    <glyph glyph-name="uFE98" unicode="&#x62a;" horiz-adv-x="844" arabic-form="medial" 
d="M350 1351c0 -26.667 -9.66699 -49.667 -29 -69s-42.666 -29 -69.999 -29c-26.667 0 -49.667 9.66699 -69 29s-29 42.333 -29 69c0 27.333 9.66699 50.666 29 69.999s42.333 29 69 29c27.333 0 50.666 -9.66699 69.999 -29s29 -42.666 29 -69.999zM588 1351
c0 -26.667 -9.5 -49.667 -28.5 -69s-42.167 -29 -69.5 -29c-26.667 0 -49.5 9.66699 -68.5 29s-28.5 42.333 -28.5 69c0 27.333 9.5 50.666 28.5 69.999s41.833 29 68.5 29c27.333 0 50.5 -9.66699 69.5 -29s28.5 -42.666 28.5 -69.999zM528 219v495
c-20 6 -39.667 17 -59 33c-44 38 -87 105 -129 201l-31 71v-800h-310v-219h846v219h-317z" />
    <glyph glyph-name="uFE9A" unicode="&#x62b;" horiz-adv-x="2018" arabic-form="final" 
d="M900 1351c0 -26.667 -9.66699 -49.667 -29 -69s-42.666 -29 -69.999 -29c-26.667 0 -49.667 9.66699 -69 29s-29 42.333 -29 69c0 27.333 9.66699 50.666 29 69.999s42.333 29 69 29c27.333 0 50.666 -9.66699 69.999 -29s29 -42.666 29 -69.999zM1138 1351
c0 -26.667 -9.5 -49.667 -28.5 -69s-42.167 -29 -69.5 -29c-26.667 0 -49.5 9.66699 -68.5 29s-28.5 42.333 -28.5 69c0 27.333 9.5 50.666 28.5 69.999s41.833 29 68.5 29c27.333 0 50.5 -9.66699 69.5 -29s28.5 -42.666 28.5 -69.999zM1019 1561
c0 -26.667 -9.66699 -49.667 -29 -69s-42.666 -29 -69.999 -29c-26.667 0 -49.667 9.66699 -69 29s-29 42.333 -29 69c0 27.333 9.66699 50.666 29 69.999s42.333 29 69 29c27.333 0 50.666 -9.66699 69.999 -29s29 -42.666 29 -69.999zM1700 219l-0.000976562 495.001
c-19.333 5.33301 -38.666 16 -57.999 32c-46 39.333 -89 106.666 -129 201.999l-32 71l1 -800h-1118v800l-32 -71c-40 -96 -83 -163 -129 -201c-19.333 -16 -38.333 -27 -57 -33l-1 -714h1874v219h-319z" />
    <glyph glyph-name="uFE9B" unicode="&#x62b;" horiz-adv-x="597" arabic-form="initial" 
d="M270 1351c0 -26.667 -9.66699 -49.667 -29 -69s-42.666 -29 -69.999 -29c-26.667 0 -49.667 9.66699 -69 29s-29 42.333 -29 69c0 27.333 9.66699 50.666 29 69.999s42.333 29 69 29c27.333 0 50.666 -9.66699 69.999 -29s29 -42.666 29 -69.999zM508 1351
c0 -26.667 -9.5 -49.667 -28.5 -69s-42.167 -29 -69.5 -29c-26.667 0 -49.5 9.66699 -68.5 29s-28.5 42.333 -28.5 69c0 27.333 9.5 50.666 28.5 69.999s41.833 29 68.5 29c27.333 0 50.5 -9.66699 69.5 -29s28.5 -42.666 28.5 -69.999zM389 1561
c0 -26.667 -9.66699 -49.667 -29 -69s-42.666 -29 -69.999 -29c-26.667 0 -49.667 9.66699 -69 29s-29 42.333 -29 69c0 27.333 9.66699 50.666 29 69.999s42.333 29 69 29c27.333 0 50.666 -9.66699 69.999 -29s29 -42.666 29 -69.999zM528 0v714c-20 6 -39.667 17 -59 33
c-44 38 -87 105 -129 201l-31 71v-800h-310v-219h529z" />
    <glyph glyph-name="uFE9C" unicode="&#x62b;" horiz-adv-x="844" arabic-form="medial" 
d="M469 1561c0 -26.667 -9.66699 -49.667 -29 -69s-42.666 -29 -69.999 -29c-26.667 0 -49.667 9.66699 -69 29s-29 42.333 -29 69c0 27.333 9.66699 50.666 29 69.999s42.333 29 69 29c27.333 0 50.666 -9.66699 69.999 -29s29 -42.666 29 -69.999zM350 1351
c0 -26.667 -9.66699 -49.667 -29 -69s-42.666 -29 -69.999 -29c-26.667 0 -49.667 9.66699 -69 29s-29 42.333 -29 69c0 27.333 9.66699 50.666 29 69.999s42.333 29 69 29c27.333 0 50.666 -9.66699 69.999 -29s29 -42.666 29 -69.999zM588 1351
c0 -26.667 -9.5 -49.667 -28.5 -69s-42.167 -29 -69.5 -29c-26.667 0 -49.5 9.66699 -68.5 29s-28.5 42.333 -28.5 69c0 27.333 9.5 50.666 28.5 69.999s41.833 29 68.5 29c27.333 0 50.5 -9.66699 69.5 -29s28.5 -42.666 28.5 -69.999zM528 219v495
c-20 6 -39.667 17 -59 33c-44 38 -87 105 -129 201l-31 71v-800h-310v-219h846v219h-317z" />
    <glyph glyph-name="uFE9E" unicode="&#x62c;" horiz-adv-x="1116" arabic-form="final" 
d="M446 0l671 0.000976562v219h-266l-137 613c-16.667 35.333 -55 63.666 -115 84.999c-46 16 -89.667 25.667 -131 29c-96.667 12 -217.334 36 -362.001 72c118.667 -137.333 235.667 -223.666 351 -258.999l141 -540h-156c-123.333 -6 -210.666 -37 -261.999 -93
c-60 -61.333 -90 -147 -90 -257c0 -64 10 -125.333 30 -184c23.333 -65.333 76.333 -107.333 159 -126l216 -22c-112.667 57.333 -177.667 121 -195 191c-18.667 72.667 -17 132 5 178c31.333 51.333 78.333 82.666 141 93.999zM756 -334.999c0 -28 -9.5 -51.5 -28.5 -70.5
s-42.5 -28.5 -70.5 -28.5c-26.667 0 -49.667 9.5 -69 28.5s-29 42.5 -29 70.5c0 27.333 9.66699 50.666 29 69.999s42.333 29 69 29c28 0 51.5 -9.66699 70.5 -29s28.5 -42.666 28.5 -69.999z" />
    <glyph glyph-name="uFE9F" unicode="&#x62c;" horiz-adv-x="1125" arabic-form="initial" 
d="M-1 0l730.003 0.000976562l95 -154c26.667 -13.333 55.667 -20 87 -20c11.333 0 25 0.5 41 1.5s27.667 1.83301 35 2.5c13.333 -0.666992 25.166 -3.66699 35.499 -9s16.166 -8 17.499 -8c8.66699 -0.666992 -6.33301 31.666 -45 96.999l-94 309l-137 613
c-16.667 35.333 -55 63.666 -115 84.999c-46 16 -89.667 25.667 -131 29c-96.667 12 -217.334 36 -362.001 72c118.667 -137.333 235.667 -223.666 351 -258.999l141 -540h-649v-219zM586.003 -334.999c0 -28 -9.5 -51.5 -28.5 -70.5s-42.5 -28.5 -70.5 -28.5
c-26.667 0 -49.667 9.5 -69 28.5s-29 42.5 -29 70.5c0 27.333 9.66699 50.666 29 69.999s42.333 29 69 29c28 0 51.5 -9.66699 70.5 -29s28.5 -42.666 28.5 -69.999z" />
    <glyph glyph-name="uFEA0" unicode="&#x62c;" horiz-adv-x="1166" arabic-form="medial" 
d="M-1 0h1168v219h-266l-137 613c-16.667 35.333 -55 63.666 -115 84.999c-46 16 -89.667 25.667 -131 29c-96.667 12 -217.334 36 -362.001 72c118.667 -137.333 235.667 -223.666 351 -258.999l141 -540h-649v-219zM586.001 -335c0 -28 -9.5 -51.5 -28.5 -70.5
s-42.5 -28.5 -70.5 -28.5c-26.667 0 -49.667 9.5 -69 28.5s-29 42.5 -29 70.5c0 27.333 9.66699 50.666 29 69.999s42.333 29 69 29c28 0 51.5 -9.66699 70.5 -29s28.5 -42.666 28.5 -69.999z" />
    <glyph glyph-name="uFEA2" unicode="&#x62d;" horiz-adv-x="1116" arabic-form="final" 
d="M446 0l671 0.000976562v219h-266l-137 613c-16.667 35.333 -55 63.666 -115 84.999c-46 16 -89.667 25.667 -131 29c-96.667 12 -217.334 36 -362.001 72c118.667 -137.333 235.667 -223.666 351 -258.999l141 -540h-156c-123.333 -6 -210.666 -37 -261.999 -93
c-60 -61.333 -90 -147 -90 -257c0 -64 10 -125.333 30 -184c23.333 -65.333 76.333 -107.333 159 -126l216 -22c-112.667 57.333 -177.667 121 -195 191c-18.667 72.667 -17 132 5 178c31.333 51.333 78.333 82.666 141 93.999z" />
    <glyph glyph-name="uFEA3" unicode="&#x62d;" horiz-adv-x="1123" arabic-form="initial" 
d="M-1 0l730.003 0.000976562l95 -154c26.667 -13.333 55.667 -20 87 -20c11.333 0 25 0.5 41 1.5s27.667 1.83301 35 2.5c13.333 -0.666992 25.166 -3.66699 35.499 -9s16.166 -8 17.499 -8c8.66699 -0.666992 -6.33301 31.666 -45 96.999l-94 309l-137 613
c-16.667 35.333 -55 63.666 -115 84.999c-46 16 -89.667 25.667 -131 29c-96.667 12 -217.334 36 -362.001 72c118.667 -137.333 235.667 -223.666 351 -258.999l141 -540h-649v-219z" />
    <glyph glyph-name="uFEA4" unicode="&#x62d;" horiz-adv-x="1166" arabic-form="medial" 
d="M-1 0h1168v219h-266l-137 613c-16.667 35.333 -55 63.666 -115 84.999c-46 16 -89.667 25.667 -131 29c-96.667 12 -217.334 36 -362.001 72c118.667 -137.333 235.667 -223.666 351 -258.999l141 -540h-649v-219z" />
    <glyph glyph-name="uFEA6" unicode="&#x62e;" horiz-adv-x="1116" arabic-form="final" 
d="M536 1351c0 -28 -9.5 -51.5 -28.5 -70.5s-42.5 -28.5 -70.5 -28.5c-26.667 0 -49.667 9.5 -69 28.5s-29 42.5 -29 70.5c0 27.333 9.66699 50.666 29 69.999s42.333 29 69 29c28 0 51.5 -9.66699 70.5 -29s28.5 -42.666 28.5 -69.999zM446 0l671 0.000976562v219h-266
l-137 613c-16.667 35.333 -55 63.666 -115 84.999c-46 16 -89.667 25.667 -131 29c-96.667 12 -217.334 36 -362.001 72c118.667 -137.333 235.667 -223.666 351 -258.999l141 -540h-156c-123.333 -6 -210.666 -37 -261.999 -93c-60 -61.333 -90 -147 -90 -257
c0 -64 10 -125.333 30 -184c23.333 -65.333 76.333 -107.333 159 -126l216 -22c-112.667 57.333 -177.667 121 -195 191c-18.667 72.667 -17 132 5 178c31.333 51.333 78.333 82.666 141 93.999z" />
    <glyph glyph-name="uFEA7" unicode="&#x62e;" horiz-adv-x="1126" arabic-form="initial" 
d="M586 1351c0 -28 -9.5 -51.5 -28.5 -70.5s-42.5 -28.5 -70.5 -28.5c-26.667 0 -49.667 9.5 -69 28.5s-29 42.5 -29 70.5c0 27.333 9.66699 50.666 29 69.999s42.333 29 69 29c28 0 51.5 -9.66699 70.5 -29s28.5 -42.666 28.5 -69.999zM-1 0l730.003 0.000976562l95 -154
c26.667 -13.333 55.667 -20 87 -20c11.333 0 25 0.5 41 1.5s27.667 1.83301 35 2.5c13.333 -0.666992 25.166 -3.66699 35.499 -9s16.166 -8 17.499 -8c8.66699 -0.666992 -6.33301 31.666 -45 96.999l-94 309l-137 613c-16.667 35.333 -55 63.666 -115 84.999
c-46 16 -89.667 25.667 -131 29c-96.667 12 -217.334 36 -362.001 72c118.667 -137.333 235.667 -223.666 351 -258.999l141 -540h-649v-219z" />
    <glyph glyph-name="uFEA8" unicode="&#x62e;" horiz-adv-x="1166" arabic-form="medial" 
d="M586 1351c0 -28 -9.5 -51.5 -28.5 -70.5s-42.5 -28.5 -70.5 -28.5c-26.667 0 -49.667 9.5 -69 28.5s-29 42.5 -29 70.5c0 27.333 9.66699 50.666 29 69.999s42.333 29 69 29c28 0 51.5 -9.66699 70.5 -29s28.5 -42.666 28.5 -69.999zM-1 0h1168v219h-266l-137 613
c-16.667 35.333 -55 63.666 -115 84.999c-46 16 -89.667 25.667 -131 29c-96.667 12 -217.334 36 -362.001 72c118.667 -137.333 235.667 -223.666 351 -258.999l141 -540h-649v-219z" />
    <glyph glyph-name="uFEAA" unicode="&#x62f;" horiz-adv-x="1394" arabic-form="final" 
d="M1140 219l-0.000976562 798h-458c-5.33301 -18 -16 -37 -32 -57c-38.667 -54.667 -105.667 -100 -201 -136l-71 -25h542v-451c-1.33301 -69.333 -21.666 -112.333 -60.999 -129h-507c-34 -3.33301 -67.667 -13.333 -101 -30c-80 -29.333 -151 -92.333 -213 -189h1357v219
h-255z" />
    <glyph glyph-name="uFEAC" unicode="&#x630;" horiz-adv-x="1394" arabic-form="final" 
d="M946 1351c0 -28 -9.5 -51.5 -28.5 -70.5s-42.5 -28.5 -70.5 -28.5c-26.667 0 -49.667 9.5 -69 28.5s-29 42.5 -29 70.5c0 27.333 9.66699 50.666 29 69.999s42.333 29 69 29c28 0 51.5 -9.66699 70.5 -29s28.5 -42.666 28.5 -69.999zM1140 219l-0.000976562 798h-458
c-5.33301 -18 -16 -37 -32 -57c-38.667 -54.667 -105.667 -100 -201 -136l-71 -25h542v-451c-1.33301 -69.333 -21.666 -112.333 -60.999 -129h-507c-34 -3.33301 -67.667 -13.333 -101 -30c-80 -29.333 -151 -92.333 -213 -189h1357v219h-255z" />
    <glyph glyph-name="uFEAE" unicode="&#x631;" horiz-adv-x="672" arabic-form="final" 
d="M673 219l-195.001 -0.000976562v495c-18.667 6 -37.667 17 -57 33c-54.667 38.667 -100 105.334 -136 200.001l-25 72v-1413c-47.333 -85.333 -127 -131.333 -239 -138c89.333 -34.667 167 -52 233 -52c138.667 0 213.334 68 224.001 204v380h195v219z" />
    <glyph glyph-name="uFEB0" unicode="&#x632;" horiz-adv-x="672" arabic-form="final" 
d="M467 1351c0 -28 -9.5 -51.5 -28.5 -70.5s-42.5 -28.5 -70.5 -28.5c-26.667 0 -49.667 9.5 -69 28.5s-29 42.5 -29 70.5c0 27.333 9.66699 50.666 29 69.999s42.333 29 69 29c28 0 51.5 -9.66699 70.5 -29s28.5 -42.666 28.5 -69.999zM673 219l-195.001 -0.000976562v495
c-18.667 6 -37.667 17 -57 33c-54.667 38.667 -100 105.334 -136 200.001l-25 72v-1413c-47.333 -85.333 -127 -131.333 -239 -138c89.333 -34.667 167 -52 233 -52c138.667 0 213.334 68 224.001 204v380h195v219z" />
    <glyph glyph-name="uFEB2" unicode="&#x633;" horiz-adv-x="2129" arabic-form="final" 
d="M2129 0l-0.00195312 219.001h-242v495c-20 5.33301 -39.333 16.333 -58 33c-44 37.333 -87.333 104.333 -130 201l-30 71l-1 -800h-196l1 494c-20 6.66699 -40 17.667 -60 33c-43.333 38.667 -86.333 105.667 -129 201l-30 71v-799h-198v494
c-20 6.66699 -39.333 17.667 -58 33c-44 38.667 -87 105.667 -129 201l-31 71v-1099c2.66699 -82 -34.666 -124.667 -111.999 -128c-278.667 -0.666992 -418.667 -1 -420 -1v69v470c-16.667 39.333 -34 72 -52 98c-46 59.333 -102 110.333 -168 153v-1029h786
c32.667 5.33301 60.334 13.666 83.001 24.999c56 24.667 89.667 68.667 101 132l1 292h1072z" />
    <glyph glyph-name="uFEB3" unicode="&#x633;" horiz-adv-x="1390" arabic-form="initial" 
d="M1299 0v714c-20 5.33301 -39.333 16.333 -58 33c-44 37.333 -87.333 104.333 -130 201l-30 71l-1 -800h-196v494c-19.333 6.66699 -39 17.667 -59 33c-43.333 38.667 -86.333 105.667 -129 201l-30 71v-799h-198v494c-20 6.66699 -39.333 17.667 -58 33
c-44 38.667 -87 105.667 -129 201l-32 71v-799h-250v-219h1300z" />
    <glyph glyph-name="uFEB4" unicode="&#x633;" horiz-adv-x="1540" arabic-form="medial" 
d="M1541 0v219h-242v495c-20 5.33301 -39.333 16.333 -58 33c-44 37.333 -87.333 104.333 -130 201l-30 71l-1 -800h-196v494c-19.333 6.66699 -39 17.667 -59 33c-43.333 38.667 -86.333 105.667 -129 201l-30 71v-799h-198v494c-20 6.66699 -39.333 17.667 -58 33
c-44 38.667 -87 105.667 -129 201l-32 71v-799h-250v-219h1542z" />
    <glyph glyph-name="uFEB6" unicode="&#x634;" horiz-adv-x="2129" arabic-form="final" 
d="M1289 1351c0 -26.667 -9.66699 -49.667 -29 -69s-42.666 -29 -69.999 -29c-26.667 0 -49.667 9.66699 -69 29s-29 42.333 -29 69c0 27.333 9.66699 50.666 29 69.999s42.333 29 69 29c27.333 0 50.666 -9.66699 69.999 -29s29 -42.666 29 -69.999zM1527 1351
c0 -26.667 -9.5 -49.667 -28.5 -69s-42.167 -29 -69.5 -29c-26.667 0 -49.5 9.66699 -68.5 29s-28.5 42.333 -28.5 69c0 27.333 9.5 50.666 28.5 69.999s41.833 29 68.5 29c27.333 0 50.5 -9.66699 69.5 -29s28.5 -42.666 28.5 -69.999zM1408 1561
c0 -26.667 -9.66699 -49.667 -29 -69s-42.666 -29 -69.999 -29c-26.667 0 -49.667 9.66699 -69 29s-29 42.333 -29 69c0 27.333 9.66699 50.666 29 69.999s42.333 29 69 29c27.333 0 50.666 -9.66699 69.999 -29s29 -42.666 29 -69.999zM2129 0l-0.00195312 219.001h-242
v495c-20 5.33301 -39.333 16.333 -58 33c-44 37.333 -87.333 104.333 -130 201l-30 71l-1 -800h-196l1 494c-20 6.66699 -40 17.667 -60 33c-43.333 38.667 -86.333 105.667 -129 201l-30 71v-799h-198v494c-20 6.66699 -39.333 17.667 -58 33
c-44 38.667 -87 105.667 -129 201l-31 71v-1099c2.66699 -82 -34.666 -124.667 -111.999 -128c-278.667 -0.666992 -418.667 -1 -420 -1v69v470c-16.667 39.333 -34 72 -52 98c-46 59.333 -102 110.333 -168 153v-1029h786c32.667 5.33301 60.334 13.666 83.001 24.999
c56 24.667 89.667 68.667 101 132l1 292h1072z" />
    <glyph glyph-name="uFEB7" unicode="&#x634;" horiz-adv-x="1390" arabic-form="initial" 
d="M701 1351c0 -26.667 -9.66699 -49.667 -29 -69s-42.666 -29 -69.999 -29c-26.667 0 -49.667 9.66699 -69 29s-29 42.333 -29 69c0 27.333 9.66699 50.666 29 69.999s42.333 29 69 29c27.333 0 50.666 -9.66699 69.999 -29s29 -42.666 29 -69.999zM939 1351
c0 -26.667 -9.5 -49.667 -28.5 -69s-42.167 -29 -69.5 -29c-26.667 0 -49.5 9.66699 -68.5 29s-28.5 42.333 -28.5 69c0 27.333 9.5 50.666 28.5 69.999s41.833 29 68.5 29c27.333 0 50.5 -9.66699 69.5 -29s28.5 -42.666 28.5 -69.999zM820 1561
c0 -26.667 -9.66699 -49.667 -29 -69s-42.666 -29 -69.999 -29c-26.667 0 -49.667 9.66699 -69 29s-29 42.333 -29 69c0 27.333 9.66699 50.666 29 69.999s42.333 29 69 29c27.333 0 50.666 -9.66699 69.999 -29s29 -42.666 29 -69.999zM1299 0v714
c-20 5.33301 -39.333 16.333 -58 33c-44 37.333 -87.333 104.333 -130 201l-30 71l-1 -800h-196v494c-19.333 6.66699 -39 17.667 -59 33c-43.333 38.667 -86.333 105.667 -129 201l-30 71v-799h-198v494c-20 6.66699 -39.333 17.667 -58 33
c-44 38.667 -87 105.667 -129 201l-32 71v-799h-250v-219h1300z" />
    <glyph glyph-name="uFEB8" unicode="&#x634;" horiz-adv-x="1540" arabic-form="medial" 
d="M1541 0v219h-242v495c-20 5.33301 -39.333 16.333 -58 33c-44 37.333 -87.333 104.333 -130 201l-30 71l-1 -800h-196v494c-19.333 6.66699 -39 17.667 -59 33c-43.333 38.667 -86.333 105.667 -129 201l-30 71v-799h-198v494c-20 6.66699 -39.333 17.667 -58 33
c-44 38.667 -87 105.667 -129 201l-32 71v-799h-250v-219h1542zM701 1351c0 -26.667 -9.66699 -49.667 -29 -69s-42.666 -29 -69.999 -29c-26.667 0 -49.667 9.66699 -69 29s-29 42.333 -29 69c0 27.333 9.66699 50.666 29 69.999s42.333 29 69 29
c27.333 0 50.666 -9.66699 69.999 -29s29 -42.666 29 -69.999zM939 1351c0 -26.667 -9.5 -49.667 -28.5 -69s-42.167 -29 -69.5 -29c-26.667 0 -49.5 9.66699 -68.5 29s-28.5 42.333 -28.5 69c0 27.333 9.5 50.666 28.5 69.999s41.833 29 68.5 29
c27.333 0 50.5 -9.66699 69.5 -29s28.5 -42.666 28.5 -69.999zM820 1561c0 -26.667 -9.66699 -49.667 -29 -69s-42.666 -29 -69.999 -29c-26.667 0 -49.667 9.66699 -69 29s-29 42.333 -29 69c0 27.333 9.66699 50.666 29 69.999s42.333 29 69 29
c27.333 0 50.666 -9.66699 69.999 -29s29 -42.666 29 -69.999z" />
    <glyph glyph-name="uFEBA" unicode="&#x635;" horiz-adv-x="2245" arabic-form="final" 
d="M2246 0v218.999h-206v745c-62.667 36 -129.334 54 -200.001 54c-150.667 0 -317 -80 -499 -240l-296 -249l-1 185c-19.333 6 -38.666 16.667 -57.999 32c-44.667 38.667 -87.667 105.667 -129 201l-31 72v-331v0v-165v-650v0c-10 -46.667 -29.667 -75 -59 -85h-452v71
v488c-16 26.667 -33.333 52.334 -52 77.001c-44 58 -100 108.333 -168 151l-1 -1020h783c31.333 4.66699 59 12.667 83 24c54.667 25.333 83 70 85 134v287h1201zM1822 754.999l0.000976562 -536h-778c319.333 300 559.666 486.667 720.999 560c26.667 0 45.667 -8 57 -24z
" />
    <glyph glyph-name="uFEBB" unicode="&#x635;" horiz-adv-x="1567" arabic-form="initial" 
d="M1473 0v963c-62.667 36 -129.334 54 -200.001 54c-150.667 0 -317 -80 -499 -240l-296 -249l-1 185c-19.333 6 -38.666 16.667 -57.999 32c-44.667 38.667 -87.667 105.667 -129 201l-31 72v-799h-260v-219h1474zM1255 754l0.000976562 -534.999h-778
c319.333 299.333 559.666 485.666 720.999 558.999c26.667 0 45.667 -8 57 -24z" />
    <glyph glyph-name="uFEBC" unicode="&#x635;" horiz-adv-x="1678" arabic-form="medial" 
d="M1679 0v219h-206v744c-62.667 36 -129.334 54 -200.001 54c-150.667 0 -317 -80 -499 -240l-296 -249l-1 185c-19.333 6 -38.666 16.667 -57.999 32c-44.667 38.667 -87.667 105.667 -129 201l-31 72v-799h-260v-219h1680zM1255 754l0.000976562 -534.999h-778
c319.333 299.333 559.666 485.666 720.999 558.999c26.667 0 45.667 -8 57 -24z" />
    <glyph glyph-name="uFEBE" unicode="&#x636;" horiz-adv-x="2245" arabic-form="final" 
d="M2246 0v218.999h-206v745c-62.667 36 -129.334 54 -200.001 54c-150.667 0 -317 -80 -499 -240l-296 -249l-1 185c-19.333 6 -38.666 16.667 -57.999 32c-44.667 38.667 -87.667 105.667 -129 201l-31 72v-331v0v-165v-650v0c-10 -46.667 -29.667 -75 -59 -85h-452v71
v488c-16 26.667 -33.333 52.334 -52 77.001c-44 58 -100 108.333 -168 151l-1 -1020h783c31.333 4.66699 59 12.667 83 24c54.667 25.333 83 70 85 134v287h1201zM1822 754.999l0.000976562 -536h-778c319.333 300 559.666 486.667 720.999 560c26.667 0 45.667 -8 57 -24z
M1480 1351c0 -26.667 -9.66699 -49.667 -29 -69s-42.666 -29 -69.999 -29c-26.667 0 -49.667 9.66699 -69 29s-29 42.333 -29 69c0 27.333 9.66699 50.666 29 69.999s42.333 29 69 29c27.333 0 50.666 -9.66699 69.999 -29s29 -42.666 29 -69.999z" />
    <glyph glyph-name="uFEBF" unicode="&#x636;" horiz-adv-x="1569" arabic-form="initial" 
d="M915 1350c0 -26.667 -9.66699 -49.667 -29 -69s-42.666 -29 -69.999 -29c-26.667 0 -49.667 9.66699 -69 29s-29 42.333 -29 69c0 27.333 9.66699 50.666 29 69.999s42.333 29 69 29c27.333 0 50.666 -9.66699 69.999 -29s29 -42.666 29 -69.999zM1475 0v963
c-62.667 36 -129.334 54 -200.001 54c-150.667 0 -317 -80 -499 -240l-296 -249l-1 185c-19.333 6 -38.666 16.667 -57.999 32c-44.667 38.667 -87.667 105.667 -129 201l-31 72v-799h-260v-219h1474zM1257 754l0.000976562 -534.999h-778
c319.333 299.333 559.666 485.666 720.999 558.999c26.667 0 45.667 -8 57 -24z" />
    <glyph glyph-name="uFEC0" unicode="&#x636;" horiz-adv-x="1678" arabic-form="medial" 
d="M1679 0v219h-206v744c-62.667 36 -129.334 54 -200.001 54c-150.667 0 -317 -80 -499 -240l-296 -249l-1 185c-19.333 6 -38.666 16.667 -57.999 32c-44.667 38.667 -87.667 105.667 -129 201l-31 72v-799h-260v-219h1680zM1255 754l0.000976562 -534.999h-778
c319.333 299.333 559.666 485.666 720.999 558.999c26.667 0 45.667 -8 57 -24zM913.001 1350c0 -26.667 -9.66699 -49.667 -29 -69s-42.666 -29 -69.999 -29c-26.667 0 -49.667 9.66699 -69 29s-29 42.333 -29 69c0 27.333 9.66699 50.666 29 69.999s42.333 29 69 29
c27.333 0 50.666 -9.66699 69.999 -29s29 -42.666 29 -69.999z" />
    <glyph glyph-name="uFEC2" unicode="&#x637;" horiz-adv-x="1826" arabic-form="final" 
d="M1826 0v219.001h-206v744c-62.667 36 -129.334 54 -200.001 54c-150.667 0 -317 -80 -499 -240l-297 -249v954c-19.333 6 -38.666 16.667 -57.999 32c-44.667 38.667 -87.667 105.667 -129 201l-31 72v-1568h-57c-43.333 -2 -86.333 -13.333 -129 -34
c-74 -38.667 -135.333 -100.334 -184 -185.001h1790zM1402 754.001l0.000976562 -534.999h-778c319.333 299.333 559.666 485.666 720.999 558.999c26.667 0 45.667 -8 57 -24z" />
    <glyph glyph-name="uFEC3" unicode="&#x637;" horiz-adv-x="1552" arabic-form="initial" 
d="M1453 0v963c-62.667 36 -129.334 54 -200.001 54c-150.667 0 -317 -80 -499 -240l-296 -249l-1 954c-19.333 6 -38.666 16.667 -57.999 32c-44.667 38.667 -87.667 105.667 -129 201l-31 72v-1568h-240v-219h1454zM1235 754l0.000976562 -534.999h-778
c319.333 299.333 559.666 485.666 720.999 558.999c26.667 0 45.667 -8 57 -24z" />
    <glyph glyph-name="uFEC4" unicode="&#x637;" horiz-adv-x="1658" arabic-form="medial" 
d="M1659 0v219h-206v744c-62.667 36 -129.334 54 -200.001 54c-150.667 0 -317 -80 -499 -240l-296 -249l-1 954c-19.333 6 -38.666 16.667 -57.999 32c-44.667 38.667 -87.667 105.667 -129 201l-31 72v-1568h-240v-219h1660zM1235 754l0.000976562 -534.999h-778
c319.333 299.333 559.666 485.666 720.999 558.999c26.667 0 45.667 -8 57 -24z" />
    <glyph glyph-name="uFEC6" unicode="&#x638;" horiz-adv-x="1828" arabic-form="final" 
d="M1828 0v219.001h-206v744c-62.667 36 -129.334 54 -200.001 54c-150.667 0 -317 -80 -499 -240l-297 -249v954c-19.333 6 -38.666 16.667 -57.999 32c-44.667 38.667 -87.667 105.667 -129 201l-31 72v-1568h-57c-43.333 -2 -86.333 -13.333 -129 -34
c-74 -38.667 -135.333 -100.334 -184 -185.001h1790zM1404 754.001l0.000976562 -534.999h-778c319.333 299.333 559.666 485.666 720.999 558.999c26.667 0 45.667 -8 57 -24zM1062 1350c0 -26.667 -9.66699 -49.667 -29 -69s-42.666 -29 -69.999 -29
c-26.667 0 -49.667 9.66699 -69 29s-29 42.333 -29 69c0 27.333 9.66699 50.666 29 69.999s42.333 29 69 29c27.333 0 50.666 -9.66699 69.999 -29s29 -42.666 29 -69.999z" />
    <glyph glyph-name="uFEC7" unicode="&#x638;" horiz-adv-x="1545" arabic-form="initial" 
d="M893 1350c0 -26.667 -9.66699 -49.667 -29 -69s-42.666 -29 -69.999 -29c-26.667 0 -49.667 9.66699 -69 29s-29 42.333 -29 69c0 27.333 9.66699 50.666 29 69.999s42.333 29 69 29c27.333 0 50.666 -9.66699 69.999 -29s29 -42.666 29 -69.999zM1453 0v963
c-62.667 36 -129.334 54 -200.001 54c-150.667 0 -317 -80 -499 -240l-296 -249l-1 954c-19.333 6 -38.666 16.667 -57.999 32c-44.667 38.667 -87.667 105.667 -129 201l-31 72v-1568h-240v-219h1454zM1235 754l0.000976562 -534.999h-778
c319.333 299.333 559.666 485.666 720.999 558.999c26.667 0 45.667 -8 57 -24z" />
    <glyph glyph-name="uFEC8" unicode="&#x638;" horiz-adv-x="1658" arabic-form="medial" 
d="M1659 0v219h-206v744c-62.667 36 -129.334 54 -200.001 54c-150.667 0 -317 -80 -499 -240l-296 -249l-1 954c-19.333 6 -38.666 16.667 -57.999 32c-44.667 38.667 -87.667 105.667 -129 201l-31 72v-1568h-240v-219h1660zM1235 754l0.000976562 -534.999h-778
c319.333 299.333 559.666 485.666 720.999 558.999c26.667 0 45.667 -8 57 -24zM893.001 1350c0 -26.667 -9.66699 -49.667 -29 -69s-42.666 -29 -69.999 -29c-26.667 0 -49.667 9.66699 -69 29s-29 42.333 -29 69c0 27.333 9.66699 50.666 29 69.999s42.333 29 69 29
c27.333 0 50.666 -9.66699 69.999 -29s29 -42.666 29 -69.999z" />
    <glyph glyph-name="uFECA" unicode="&#x639;" horiz-adv-x="1219" arabic-form="final" 
d="M560 0l659.999 0.00292969v219h-573c-63.333 12.667 -122 61.334 -176 146.001c-44 92.667 -54.667 167 -32 223c18.667 92.667 76.334 144 173.001 154c96.667 3.33301 165 -52.334 205 -167.001c44.667 23.333 61.667 77.333 51 162c-5.33301 21.333 -31.333 49 -78 83
c24.667 20 54.334 68.667 89.001 146c3.33301 22 5 43.667 5 65c0 66.667 -19 120.667 -57 162c7.33301 -40 1.16602 -83.833 -18.501 -131.5s-56.5 -62.5 -110.5 -44.5c-166 16 -295.333 -27 -388 -129c-72 -86.667 -108 -183 -108 -289
c-2 -168.667 93.333 -310.667 286 -426c-92 -61.333 -155 -105.333 -189 -132c-68.667 -54 -121 -111.667 -157 -173c-39.333 -66.667 -59 -143 -59 -229c0 -84.667 19.667 -156.667 59 -216c104.667 -152.667 241.334 -226.334 410.001 -221.001
c77.333 2 149.833 25 217.5 69s118.167 95.667 151.5 155c32 60.667 44.333 118 37 172c-44 -76 -90 -135.667 -138 -179c-60.667 -52.667 -128.334 -81.334 -203.001 -86.001c-70 0.666992 -133.667 21 -191 61c-77.333 57.333 -116 139 -116 245
c0 30.667 3.33301 63 10 97c14.667 57.333 44.5 112.666 89.5 165.999s95.167 86 150.5 98z" />
    <glyph glyph-name="uFECB" unicode="&#x639;" horiz-adv-x="1193" arabic-form="initial" 
d="M-2 0h1102v219h-393c-63.333 12.667 -122 61.334 -176 146.001c-44 92.667 -54.667 167 -32 223c18.667 92.667 76.334 144 173.001 154c96.667 3.33301 165 -52.334 205 -167.001c44.667 23.333 61.667 77.333 51 162c-5.33301 21.333 -31.333 49 -78 83
c24.667 20 54.334 68.667 89.001 146c3.33301 22 5 43.667 5 65c0 66.667 -19 120.667 -57 162c7.33301 -40 1.16602 -83.833 -18.501 -131.5s-56.5 -62.5 -110.5 -44.5c-166 16 -295.333 -27 -388 -129c-72 -86.667 -108 -183 -108 -289c6.66699 -152 72 -278.667 196 -380
h-459z" />
    <glyph glyph-name="uFECC" unicode="&#x639;" horiz-adv-x="1280" arabic-form="medial" 
d="M-1 0h1282v219h-573c-63.333 12.667 -122 61.334 -176 146.001c-44 92.667 -54.667 167 -32 223c18.667 92.667 76.334 144 173.001 154c96.667 3.33301 165 -52.334 205 -167.001c44.667 23.333 61.667 77.333 51 162c-5.33301 21.333 -31.333 49 -78 83
c24.667 20 54.334 68.667 89.001 146c3.33301 22 5 43.667 5 65c0 66.667 -19 120.667 -57 162c7.33301 -40 1.16602 -83.833 -18.501 -131.5s-56.5 -62.5 -110.5 -44.5c-166 16 -295.333 -27 -388 -129c-72 -86.667 -108 -183 -108 -289c6.66699 -152 72 -278.667 196 -380
h-459z" />
    <glyph glyph-name="uFECE" unicode="&#x63a;" horiz-adv-x="1219" arabic-form="final" 
d="M686 1353c0 -28 -9.5 -51.5 -28.5 -70.5s-42.5 -28.5 -70.5 -28.5c-26.667 0 -49.667 9.5 -69 28.5s-29 42.5 -29 70.5c0 27.333 9.66699 50.666 29 69.999s42.333 29 69 29c28 0 51.5 -9.66699 70.5 -29s28.5 -42.666 28.5 -69.999zM560 0l659.999 0.00292969v219h-573
c-63.333 12.667 -122 61.334 -176 146.001c-44 92.667 -54.667 167 -32 223c18.667 92.667 76.334 144 173.001 154c96.667 3.33301 165 -52.334 205 -167.001c44.667 23.333 61.667 77.333 51 162c-5.33301 21.333 -31.333 49 -78 83c24.667 20 54.334 68.667 89.001 146
c3.33301 22 5 43.667 5 65c0 66.667 -19 120.667 -57 162c7.33301 -40 1.16602 -83.833 -18.501 -131.5s-56.5 -62.5 -110.5 -44.5c-166 16 -295.333 -27 -388 -129c-72 -86.667 -108 -183 -108 -289c-2 -168.667 93.333 -310.667 286 -426
c-92 -61.333 -155 -105.333 -189 -132c-68.667 -54 -121 -111.667 -157 -173c-39.333 -66.667 -59 -143 -59 -229c0 -84.667 19.667 -156.667 59 -216c104.667 -152.667 241.334 -226.334 410.001 -221.001c77.333 2 149.833 25 217.5 69s118.167 95.667 151.5 155
c32 60.667 44.333 118 37 172c-44 -76 -90 -135.667 -138 -179c-60.667 -52.667 -128.334 -81.334 -203.001 -86.001c-70 0.666992 -133.667 21 -191 61c-77.333 57.333 -116 139 -116 245c0 30.667 3.33301 63 10 97c14.667 57.333 44.5 112.666 89.5 165.999
s95.167 86 150.5 98z" />
    <glyph glyph-name="uFECF" unicode="&#x63a;" horiz-adv-x="1192" arabic-form="initial" 
d="M747 1353c0 -28 -9.5 -51.5 -28.5 -70.5s-42.5 -28.5 -70.5 -28.5c-26.667 0 -49.667 9.5 -69 28.5s-29 42.5 -29 70.5c0 27.333 9.66699 50.666 29 69.999s42.333 29 69 29c28 0 51.5 -9.66699 70.5 -29s28.5 -42.666 28.5 -69.999zM-1 0h1102v219h-393
c-63.333 12.667 -122 61.334 -176 146.001c-44 92.667 -54.667 167 -32 223c18.667 92.667 76.334 144 173.001 154c96.667 3.33301 165 -52.334 205 -167.001c44.667 23.333 61.667 77.333 51 162c-5.33301 21.333 -31.333 49 -78 83c24.667 20 54.334 68.667 89.001 146
c3.33301 22 5 43.667 5 65c0 66.667 -19 120.667 -57 162c7.33301 -40 1.16602 -83.833 -18.501 -131.5s-56.5 -62.5 -110.5 -44.5c-166 16 -295.333 -27 -388 -129c-72 -86.667 -108 -183 -108 -289c6.66699 -152 72 -278.667 196 -380h-459z" />
    <glyph glyph-name="uFED0" unicode="&#x63a;" horiz-adv-x="1279" arabic-form="medial" 
d="M747 1353c0 -28 -9.5 -51.5 -28.5 -70.5s-42.5 -28.5 -70.5 -28.5c-26.667 0 -49.667 9.5 -69 28.5s-29 42.5 -29 70.5c0 27.333 9.66699 50.666 29 69.999s42.333 29 69 29c28 0 51.5 -9.66699 70.5 -29s28.5 -42.666 28.5 -69.999zM-1 0h1282v219h-573
c-63.333 12.667 -122 61.334 -176 146.001c-44 92.667 -54.667 167 -32 223c18.667 92.667 76.334 144 173.001 154c96.667 3.33301 165 -52.334 205 -167.001c44.667 23.333 61.667 77.333 51 162c-5.33301 21.333 -31.333 49 -78 83c24.667 20 54.334 68.667 89.001 146
c3.33301 22 5 43.667 5 65c0 66.667 -19 120.667 -57 162c7.33301 -40 1.16602 -83.833 -18.501 -131.5s-56.5 -62.5 -110.5 -44.5c-166 16 -295.333 -27 -388 -129c-72 -86.667 -108 -183 -108 -289c6.66699 -152 72 -278.667 196 -380h-459z" />
    <glyph glyph-name="uFED2" unicode="&#x641;" horiz-adv-x="1940" arabic-form="final" 
d="M1691 219l-0.000976562 786c-19.333 6.66699 -39 17.667 -59 33c-43.333 38.667 -86 106 -128 202l-32 70l1 -347c-68 38.667 -141.667 58 -221 58c-120.667 0 -223.5 -41.333 -308.5 -124s-127.5 -181.667 -127.5 -297c0 -76 19.833 -146.5 59.5 -211.5
s92.834 -121.5 159.501 -169.5h-705v237v0c1.33301 106.667 2 209 2 307c-4 31.333 -14 62.333 -30 93c-38.667 73.333 -102.667 127 -192 161v-1017h1831v219h-250zM1060 409c-48.667 48 -73.001 105.667 -73.001 173c0 68 24.333 126 73 174s107.334 72 176.001 72
c69.333 0 126.5 -22 171.5 -66s66.833 -103.667 65.5 -179c2 -76 -19.667 -136 -65 -180s-102.666 -66 -171.999 -66c-68.667 0 -127.334 24 -176.001 72zM1290 1350c0 -26.667 -9.66699 -49.667 -29 -69s-42.666 -29 -69.999 -29c-26.667 0 -49.667 9.66699 -69 29
s-29 42.333 -29 69c0 27.333 9.66699 50.666 29 69.999s42.333 29 69 29c27.333 0 50.666 -9.66699 69.999 -29s29 -42.666 29 -69.999z" />
    <glyph glyph-name="uFED3" unicode="&#x641;" horiz-adv-x="1169" arabic-form="initial" 
d="M1060 0l-0.000976562 1005c-19.333 6.66699 -39 17.667 -59 33c-43.333 38.667 -86 106 -128 202l-32 70l1 -347c-68 38.667 -141.667 58 -221 58c-120.667 0 -223.5 -41.333 -308.5 -124s-127.5 -181.667 -127.5 -297c0 -76 19.833 -146.5 59.5 -211.5
s92.834 -121.5 159.501 -169.5h-405v-219h1061zM428.999 409c-48.667 48 -73.001 105.667 -73.001 173c0 68 24.333 126 73 174s107.334 72 176.001 72c69.333 0 126.5 -22 171.5 -66s66.833 -103.667 65.5 -179c2 -76 -19.667 -136 -65 -180s-102.666 -66 -171.999 -66
c-68.667 0 -127.334 24 -176.001 72zM659.998 1350c0 -26.667 -9.66699 -49.667 -29 -69s-42.666 -29 -69.999 -29c-26.667 0 -49.667 9.66699 -69 29s-29 42.333 -29 69c0 27.333 9.66699 50.666 29 69.999s42.333 29 69 29c27.333 0 50.666 -9.66699 69.999 -29
s29 -42.666 29 -69.999z" />
    <glyph glyph-name="uFED4" unicode="&#x641;" horiz-adv-x="1309" arabic-form="medial" 
d="M1060 219l-0.000976562 786c-19.333 6.66699 -39 17.667 -59 33c-43.333 38.667 -86 106 -128 202l-32 70l1 -347c-68 38.667 -141.667 58 -221 58c-120.667 0 -223.5 -41.333 -308.5 -124s-127.5 -181.667 -127.5 -297c0 -76 19.833 -146.5 59.5 -211.5
s92.834 -121.5 159.501 -169.5h-405v-219h1311v219h-250zM428.999 409c-48.667 48 -73.001 105.667 -73.001 173c0 68 24.333 126 73 174s107.334 72 176.001 72c69.333 0 126.5 -22 171.5 -66s66.833 -103.667 65.5 -179c2 -76 -19.667 -136 -65 -180
s-102.666 -66 -171.999 -66c-68.667 0 -127.334 24 -176.001 72zM659.998 1350c0 -26.667 -9.66699 -49.667 -29 -69s-42.666 -29 -69.999 -29c-26.667 0 -49.667 9.66699 -69 29s-29 42.333 -29 69c0 27.333 9.66699 50.666 29 69.999s42.333 29 69 29
c27.333 0 50.666 -9.66699 69.999 -29s29 -42.666 29 -69.999z" />
    <glyph glyph-name="uFED6" unicode="&#x642;" horiz-adv-x="1940" arabic-form="final" 
d="M1150 1351c0 -26.667 -9.66699 -49.667 -29 -69s-42.666 -29 -69.999 -29c-26.667 0 -49.667 9.66699 -69 29s-29 42.333 -29 69c0 27.333 9.66699 50.666 29 69.999s42.333 29 69 29c27.333 0 50.666 -9.66699 69.999 -29s29 -42.666 29 -69.999zM1388 1351
c0 -26.667 -9.5 -49.667 -28.5 -69s-42.167 -29 -69.5 -29c-26.667 0 -49.5 9.66699 -68.5 29s-28.5 42.333 -28.5 69c0 27.333 9.5 50.666 28.5 69.999s41.833 29 68.5 29c27.333 0 50.5 -9.66699 69.5 -29s28.5 -42.666 28.5 -69.999zM1691 219l-0.000976562 786
c-19.333 6.66699 -39 17.667 -59 33c-43.333 38.667 -86 106 -128 202l-32 70l1 -347c-68 38.667 -141.667 58 -221 58c-120.667 0 -223.5 -41.333 -308.5 -124s-127.5 -181.667 -127.5 -297c0 -76 19.833 -146.5 59.5 -211.5s92.834 -121.5 159.501 -169.5h-705v237v0
c1.33301 106.667 2 209 2 307c-4 31.333 -14 62.333 -30 93c-38.667 73.333 -102.667 127 -192 161v-1017h1831v219h-250zM1060 409c-48.667 48 -73.001 105.667 -73.001 173c0 68 24.333 126 73 174s107.334 72 176.001 72c69.333 0 126.5 -22 171.5 -66
s66.833 -103.667 65.5 -179c2 -76 -19.667 -136 -65 -180s-102.666 -66 -171.999 -66c-68.667 0 -127.334 24 -176.001 72z" />
    <glyph glyph-name="uFED7" unicode="&#x642;" horiz-adv-x="1157" arabic-form="initial" 
d="M519 1351c0 -26.667 -9.66699 -49.667 -29 -69s-42.666 -29 -69.999 -29c-26.667 0 -49.667 9.66699 -69 29s-29 42.333 -29 69c0 27.333 9.66699 50.666 29 69.999s42.333 29 69 29c27.333 0 50.666 -9.66699 69.999 -29s29 -42.666 29 -69.999zM757 1351
c0 -26.667 -9.5 -49.667 -28.5 -69s-42.167 -29 -69.5 -29c-26.667 0 -49.5 9.66699 -68.5 29s-28.5 42.333 -28.5 69c0 27.333 9.5 50.666 28.5 69.999s41.833 29 68.5 29c27.333 0 50.5 -9.66699 69.5 -29s28.5 -42.666 28.5 -69.999zM1060 0l-0.000976562 1005
c-19.333 6.66699 -39 17.667 -59 33c-43.333 38.667 -86 106 -128 202l-32 70l1 -347c-68 38.667 -141.667 58 -221 58c-120.667 0 -223.5 -41.333 -308.5 -124s-127.5 -181.667 -127.5 -297c0 -76 19.833 -146.5 59.5 -211.5s92.834 -121.5 159.501 -169.5h-405v-219h1061z
M428.999 409c-48.667 48 -73.001 105.667 -73.001 173c0 68 24.333 126 73 174s107.334 72 176.001 72c69.333 0 126.5 -22 171.5 -66s66.833 -103.667 65.5 -179c2 -76 -19.667 -136 -65 -180s-102.666 -66 -171.999 -66c-68.667 0 -127.334 24 -176.001 72z" />
    <glyph glyph-name="uFED8" unicode="&#x642;" horiz-adv-x="1309" arabic-form="medial" 
d="M519 1351c0 -26.667 -9.66699 -49.667 -29 -69s-42.666 -29 -69.999 -29c-26.667 0 -49.667 9.66699 -69 29s-29 42.333 -29 69c0 27.333 9.66699 50.666 29 69.999s42.333 29 69 29c27.333 0 50.666 -9.66699 69.999 -29s29 -42.666 29 -69.999zM757 1351
c0 -26.667 -9.5 -49.667 -28.5 -69s-42.167 -29 -69.5 -29c-26.667 0 -49.5 9.66699 -68.5 29s-28.5 42.333 -28.5 69c0 27.333 9.5 50.666 28.5 69.999s41.833 29 68.5 29c27.333 0 50.5 -9.66699 69.5 -29s28.5 -42.666 28.5 -69.999zM1060 219l-0.000976562 786
c-19.333 6.66699 -39 17.667 -59 33c-43.333 38.667 -86 106 -128 202l-32 70l1 -347c-68 38.667 -141.667 58 -221 58c-120.667 0 -223.5 -41.333 -308.5 -124s-127.5 -181.667 -127.5 -297c0 -76 19.833 -146.5 59.5 -211.5s92.834 -121.5 159.501 -169.5h-405v-219h1311
v219h-250zM428.999 409c-48.667 48 -73.001 105.667 -73.001 173c0 68 24.333 126 73 174s107.334 72 176.001 72c69.333 0 126.5 -22 171.5 -66s66.833 -103.667 65.5 -179c2 -76 -19.667 -136 -65 -180s-102.666 -66 -171.999 -66c-68.667 0 -127.334 24 -176.001 72z" />
    <glyph glyph-name="uFEDE" unicode="&#x644;" horiz-adv-x="1351" arabic-form="final" 
d="M1352 219h-318v1262c-19.333 5.33301 -38.666 16 -57.999 32c-46 38.667 -89 105.667 -129 201l-32 71c0 -1269.33 0 -1902.33 0 -1899c0 -47.333 -42.333 -75.333 -127 -84h-371v592c-1.33301 32 -10 63.667 -26 95c-42.667 76 -107.334 144 -194.001 204v-1110h790
c91.333 2 140.333 64.667 147 188v229h318v219z" />
    <glyph glyph-name="uFEDF" unicode="&#x644;" horiz-adv-x="631" arabic-form="initial" 
d="M528 0v1480c-20 6 -39.667 17 -59 33c-44 38 -87 105 -129 201l-31 71v-1566h-310v-219h529z" />
    <glyph glyph-name="uFEE0" unicode="&#x644;" horiz-adv-x="844" arabic-form="medial" 
d="M528 219v1261c-20 6 -39.667 17 -59 33c-44 38 -87 105 -129 201l-31 71v-1566h-310v-219h846v219h-317z" />
    <glyph glyph-name="uFEE2" unicode="&#x645;" horiz-adv-x="1100" arabic-form="final" 
d="M248 -394l-0.000976562 1414l26 -66c36.667 -114 103.334 -187.333 200.001 -220l189 1c146 -16.667 226.667 -92.334 242 -227.001v-289h196v-219h-196h-438v-380c-10.667 -137.333 -85.667 -205.666 -225 -204.999c-65.333 -0.666992 -142.333 17 -231 53
c112 6.66699 191 52.667 237 138zM466.999 219h218.999v226c-7.33301 38.667 -45.666 57 -114.999 55l-104 1v-282z" />
    <glyph glyph-name="uFEE3" unicode="&#x645;" horiz-adv-x="977" arabic-form="initial" 
d="M249 219l-0.000976562 801.001l26 -66c36.667 -114 103.334 -187.333 200.001 -220l189 1c146 -16.667 226.667 -92.334 242 -227.001v-508h-907v219h250zM467.999 219.001h218.999v226c-7.33301 38.667 -45.666 57 -114.999 55l-104 1v-282z" />
    <glyph glyph-name="uFEE4" unicode="&#x645;" horiz-adv-x="1111" arabic-form="medial" 
d="M1112 219l-198.001 -0.000976562c3.33301 143.333 0.333008 238 -9 284c-12 92 -46.667 155 -104 189c-41.333 25.333 -103.666 38 -186.999 38c-162 18.667 -282.333 93.334 -361 224.001l-27 68l1 -217c-0.666992 0 -1 0.666992 -1 2l1 -588h-228v-219h229v-112h686
v112h198v219zM523.999 498.999h27.001c50 0 85 -14.667 105 -44v-310h-172v358c9.33301 -2.66699 22.666 -4 39.999 -4z" />
    <glyph glyph-name="uFEE6" unicode="&#x646;" horiz-adv-x="1353" arabic-form="final" 
d="M1353 219l-319.001 0.000976562v444c0.666992 0 1 -0.666992 1 -2v38c-19.333 3.33301 -38.666 13.333 -57.999 30c-47.333 39.333 -92 106.666 -134 201.999l-28 70v-1114c0 -47.333 -40 -75.333 -120 -84h-378l1 955l-31 -72c-50 -146 -113 -223.333 -189 -232v-870
h790c90.667 0 139.667 62.333 147 187v229h318v219zM649.999 894.001c0 -28.667 -9.83301 -52.834 -29.5 -72.501s-43.834 -29.5 -72.501 -29.5s-53.167 9.83301 -73.5 29.5s-30.5 43.834 -30.5 72.501s10.167 53 30.5 73s44.833 30 73.5 30s52.834 -10 72.501 -30
s29.5 -44.333 29.5 -73z" />
    <glyph glyph-name="uFEE7" unicode="&#x646;" horiz-adv-x="599" arabic-form="initial" 
d="M386 1353c0 -28 -9.5 -51.5 -28.5 -70.5s-42.5 -28.5 -70.5 -28.5c-26.667 0 -49.667 9.5 -69 28.5s-29 42.5 -29 70.5c0 27.333 9.66699 50.666 29 69.999s42.333 29 69 29c28 0 51.5 -9.66699 70.5 -29s28.5 -42.666 28.5 -69.999zM528 0v714c-20 6 -39.667 17 -59 33
c-44 38 -87 105 -129 201l-31 71v-800h-310v-219h529z" />
    <glyph glyph-name="uFEE8" unicode="&#x646;" horiz-adv-x="844" arabic-form="medial" 
d="M516 1353c0 -28 -9.5 -51.5 -28.5 -70.5s-42.5 -28.5 -70.5 -28.5c-26.667 0 -49.667 9.5 -69 28.5s-29 42.5 -29 70.5c0 27.333 9.66699 50.666 29 69.999s42.333 29 69 29c28 0 51.5 -9.66699 70.5 -29s28.5 -42.666 28.5 -69.999zM528 219v495
c-20 6 -39.667 17 -59 33c-44 38 -87 105 -129 201l-31 71v-800h-310v-219h846v219h-317z" />
    <glyph glyph-name="uFEEA" unicode="&#x647;" horiz-adv-x="1004" arabic-form="final" 
d="M755 219l0.000976562 801.001l-26 -66c-36.667 -114 -103.334 -187.333 -200.001 -220l-189 1c-146 -16.667 -226.667 -92.334 -242 -227.001v-508h907v219h-250zM536.001 219.001h-218.999v226c7.33301 38.667 45.666 57 114.999 55l104 1v-282z" />
    <glyph glyph-name="uFEEB" unicode="&#x647;" horiz-adv-x="1347" arabic-form="initial" 
d="M611 562c32 -3.33301 62.333 -15.667 91 -37v-306h-175v346c28 -0.666992 56 -1.66699 84 -3zM1263 -0.000976562l-0.999023 817.999c-1.33301 92 -19.333 171 -54 237c-80.667 158 -210.334 237 -389.001 237c-156 0 -345 -62.333 -567 -187c94.667 20 190 30 286 30
c336.667 0 505 -128.667 505 -386v-530h-122l-1 346c-14.667 84 -47.667 142.333 -99 175c-39.333 22.667 -97 34 -173 34c-136 -3.33301 -247 65.334 -333 206.001l-8 37v-798h-308v-219h1264z" />
    <glyph glyph-name="uFEEC" unicode="&#x647;" horiz-adv-x="1477" arabic-form="medial" 
d="M611 562c32 -3.33301 62.333 -15.667 91 -37v-306h-175v346c28 -0.666992 56 -1.66699 84 -3zM1263 218.999l-0.999023 598.999c-1.33301 92 -19.333 171 -54 237c-80.667 158 -210.334 237 -389.001 237c-156 0 -345 -62.333 -567 -187c94.667 20 190 30 286 30
c336.667 0 505 -128.667 505 -386v-530h-122l-1 346c-14.667 84 -47.667 142.333 -99 175c-39.333 22.667 -97 34 -173 34c-136 -3.33301 -247 65.334 -333 206.001l-8 37v-798h-308v-219h1479v219h-215z" />
    <glyph glyph-name="uFEEE" unicode="&#x648;" horiz-adv-x="1005" arabic-form="final" 
d="M756 219l0.000976562 800.001l-26 -66c-36.667 -114 -103.334 -187.333 -200.001 -220l-189 1c-146 -16.667 -226.667 -92.334 -242 -227.001v-507h438l1 -394c-65.333 -85.333 -160 -131 -284 -137c98.667 -34.667 183.667 -52 255 -52c152 0 234.333 67.667 247 203
v380h250v219h-250zM537.001 219.001h-218.999v225c7.33301 38.667 45.666 57 114.999 55l104 1v-281z" />
    <glyph glyph-name="uFEF0" unicode="&#x649;" horiz-adv-x="1826" arabic-form="final" 
d="M1645 219l-594 676.998c-77.333 82 -172 123 -284 123c-50.667 0 -98.667 -9.66699 -144 -29c-104.667 -36 -175.334 -105 -212.001 -207c-27.333 -96 -3.33301 -185.667 72 -269l407 -450c36.667 -36.667 58 -82 64 -136c-26 -56 -80.333 -94.333 -163 -115
c-48.667 -11.333 -97 -14.333 -145 -9c-150.667 22 -257 71.667 -319 149c-63.333 88.667 -95 215.334 -95 380.001c0 54.667 5.33301 122.334 16 203.001c-10.667 -16 -25 -40 -43 -72c-48 -134 -72 -262.667 -72 -386c0 -114 28.667 -214.667 86 -302
c106 -120 227.333 -188 364 -204c32 -2.66699 63 -4 93 -4c197.333 0 356.333 74.667 477 224c57.333 108 57.666 209.333 0.999023 304c-63.333 66.667 -134.666 146 -213.999 238l-204 232c-112 112.667 -126.667 188.667 -44 228c62.667 34.667 122.334 26 179.001 -26
l479 -532l203 -236h274v219h-182z" />
    <glyph glyph-name=".notdef" horiz-adv-x="1005" 
d="M126 0v1181h753v-1181h-753zM251 126h503v929h-503v-929z" />
    <glyph glyph-name="space" unicode=" " horiz-adv-x="299" 
 />
    <glyph glyph-name="exclam" unicode="!" horiz-adv-x="486" 
d="M399 1211c-20 -126 -30 -293 -30 -501c0 -142 6.66699 -260 20 -354l-91 -56c-26.667 76.667 -49.667 206 -69 388c-15.333 145.333 -23 259.333 -23 342c0 31.333 22.333 66.333 67 105c56.667 48.667 87.667 78 93 88c4 7.33301 9.33301 11 16 11
c14 0 19.667 -7.66699 17 -23zM487 82c0 -14 -22.832 -44.333 -68.499 -91s-75.5 -70 -89.5 -70c-16.667 0 -45.334 22 -86.001 66s-61 74.667 -61 92c0 12.667 21.333 39.667 64 81s70.667 62 84 62s42.833 -20.167 88.5 -60.5s68.5 -66.833 68.5 -79.5z" />
    <glyph glyph-name="percent" unicode="%" horiz-adv-x="962" 
d="M864 1398l-685 -1549l-83 32l687 1552zM393 1190c-14.667 -18 -65.333 -76 -152 -174l-177 153l142 173zM890.001 110c-14.667 -18.667 -65.667 -77 -153 -175l-178 154l143 172z" />
    <glyph glyph-name="parenleft" unicode="(" horiz-adv-x="504" 
d="M508 -100c0 -22.667 -25.665 -59 -76.998 -109c-36 26.667 -78 84 -126 172c-71.333 131.333 -111.333 270.333 -120 417c-2 34 -3 65.667 -3 95c0 108 21 220.667 63 338c22.667 63.333 61 135 115 215c31.333 46.667 52.666 70 63.999 70c4 0 13 -5.5 27 -16.5
s21 -18.167 21 -21.5c0 4.66699 -18.667 -20.666 -56 -75.999c-40.667 -60.667 -69.334 -121.334 -86.001 -182.001c-24.667 -90 -37 -176.333 -37 -259c0 -140 12.333 -247 37 -321c30 -89.333 69 -169 117 -239c40.667 -59.333 61 -87 61 -83z" />
    <glyph glyph-name="parenright" unicode=")" horiz-adv-x="504" 
d="M179 987c0 23.333 25.666 59.999 76.999 109.999c37.333 -30 79.333 -87.667 126 -173c70.667 -129.333 110.667 -268.333 120 -417c2 -32 3 -62.333 3 -91c0 -106 -21.333 -219.333 -64 -340c-26 -73.333 -64.333 -144.666 -115 -213.999
c-35.333 -48 -56.333 -72 -63 -72c-4 0 -13 5.66699 -27 17s-21 18.666 -21 21.999c0 -4 18.333 21.333 55 76c40.667 60.667 69.334 121 86.001 181c26.667 96.667 40 183 40 259c0 216.667 -52.667 403.334 -158 560.001c-39.333 58.667 -59 86 -59 82z" />
    <glyph glyph-name="asterisk" unicode="*" horiz-adv-x="1128" 
d="M997 602c-42.667 -46 -119.333 -83.999 -230 -113.999c-14.667 -4 -22 -1 -22 9c0 3.33301 1 6.66602 3 9.99902c30 100 69 174 117 222c18.667 18.667 40 28 64 28s45.667 -9.83301 65 -29.5s29 -41.5 29 -65.5c0 -21.333 -8.66699 -41.333 -26 -60zM740.001 9.00098
c0 -56.667 -30.332 -84.998 -90.999 -84.998c-60 0 -90 30.667 -90 92c0 55.333 24 134.666 72 237.999c9.33301 20 19.666 20 30.999 0c52 -92.667 78 -174.334 78 -245.001zM1130 396.003c0 -60 -28.667 -90.668 -86 -92.001
c-66.667 -1.33301 -148.334 25.334 -245.001 80.001c-8 4.66699 -12 10 -12 16c0.666992 6 4.66699 10.333 12 13c104.667 49.333 184.334 74 239.001 74c61.333 0 92 -30.333 92 -91zM748.002 781.002c0 -66.667 -26.333 -148.333 -79 -245
c-11.333 -20.667 -21.333 -20.667 -30 0c-48 110.667 -72 190.667 -72 240c0 60.667 30.333 91 91 91c60 0 90 -28.667 90 -86zM556.002 511.003c1.33301 -2.66699 2.00195 -5.99902 2.00195 -9.99902c0 -3.33301 -0.666992 -6 -2 -8c-4 -4 -10 -4.66699 -18 -2
c-108.667 40 -182.667 79.667 -222 119c-18.667 18.667 -28 40.334 -28 65.001c0 23.333 9.66699 44.666 29 63.999s40.666 29 63.999 29c22 0 42 -9 60 -27c57.333 -56.667 95.666 -133.334 114.999 -230.001zM747.004 404.004c0 -24.667 -9.33203 -46.332 -27.999 -64.999
s-40.334 -28 -65.001 -28c-26 0 -47 9 -63 27s-24 40.333 -24 67c0 25.333 8.66699 46.5 26 63.5s38.666 25.5 63.999 25.5c24.667 0 45.834 -8.83301 63.501 -26.5s26.5 -38.834 26.5 -63.501zM925.005 21.0059c-22.667 0 -42.667 9.00098 -60 27.001
c-46 47.333 -84.333 123.666 -115 228.999c-2.66699 8.66699 -2.16699 15 1.5 19s9.83398 4.33301 18.501 1c109.333 -42 182.666 -81 219.999 -117c19.333 -18.667 29 -40 29 -64c0 -23.333 -9.66699 -45 -29 -65s-41 -30 -65 -30zM514.005 388.007
c-106 -48 -187.001 -72.001 -243.001 -72.001c-59.333 0 -89 29.667 -89 89c0 60.667 28.333 91 85 91c70 0 151.667 -27 245 -81c7.33301 -3.33301 11.333 -7.66602 12 -12.999c0.666992 -6 -2.66602 -10.667 -9.99902 -14zM560.004 286.006
c-40.667 -108.667 -80.335 -182.332 -119.002 -220.999c-18.667 -18.667 -40 -28 -64 -28c-23.333 0 -44.666 9.5 -63.999 28.5s-29 40.167 -29 63.5c0 21.333 8.66699 40.666 26 57.999c50 50.667 127.333 89.667 232 117c2.66699 2 5.33398 3 8.00098 3
c12 0 15.333 -7 10 -21z" />
    <glyph glyph-name="plus" unicode="+" horiz-adv-x="950" 
d="M523 449h355v-98h-355v-356h-100v356h-355v100h355v354h100v-356z" />
    <glyph glyph-name="comma" unicode="," horiz-adv-x="417" 
d="M175 88c0 14.667 15.002 38.666 45.002 71.999s52 50 66 50c17.333 0 40.666 -14.333 69.999 -43c40 -38.667 60 -87.667 60 -147c0 -35.333 -21 -82.666 -63 -141.999c-44 -62 -82.333 -93 -115 -93c-12.667 0 -20.334 3.33301 -23.001 10c-2 6.66699 1.33301 14 10 22
c50.667 48 76 87.667 76 119c0 40.667 -17.667 66 -53 76c-12.667 3.33301 -28 14 -46 32s-27 32.667 -27 44z" />
    <glyph glyph-name="hyphen" unicode="-" horiz-adv-x="950" 
d="M878 449v-98h-810v100z" />
    <glyph glyph-name="period" unicode="." horiz-adv-x="391" 
d="M392 78c0 -12.667 -14.667 -33.833 -44 -63.5s-50 -44.5 -62 -44.5s-32.333 14.5 -61 43.5s-43 49.5 -43 61.5s15.167 33.167 45.5 63.5s51.166 45.5 62.499 45.5c10.667 0 30.334 -14.833 59.001 -44.5s43 -50.167 43 -61.5z" />
    <glyph glyph-name="slash" unicode="/" horiz-adv-x="911" 
d="M759 1458c0 -3.33301 26.667 -14.667 80 -34l-689 -1559l-82 32z" />
    <glyph glyph-name="zero" unicode="0" horiz-adv-x="940" 
d="M646 426l-196 -196l-193 194l196 195z" />
    <glyph glyph-name="zero" unicode="&#x6f0;" horiz-adv-x="940" 
d="M646 426l-196 -196l-193 194l196 195z" />
    <glyph glyph-name="zero" unicode="&#x660;" horiz-adv-x="940" 
d="M646 426l-196 -196l-193 194l196 195z" />
    <glyph glyph-name="one" unicode="1" horiz-adv-x="940" 
d="M653 8c-11.333 -52 -24.0029 -78 -38.0029 -78c-13.333 0 -21.666 25.667 -24.999 77c-7.33301 110.667 -38.333 235 -93 373c-25.333 64 -60.666 140.667 -105.999 230c-28 55.333 -60 108.333 -96 159c-24 34 -35.667 55 -35 63c6 33.333 20.667 101.333 44 204
c8.66699 37.333 17.334 56 26.001 56c7.33301 0 20.333 -13.333 39 -40c82 -117.333 151 -253 207 -407c60 -166 90 -314.667 90 -446c0 -88 -4.33301 -151.667 -13 -191z" />
    <glyph glyph-name="one" unicode="&#x6f1;" horiz-adv-x="940" 
d="M653 8c-11.333 -52 -24.0029 -78 -38.0029 -78c-13.333 0 -21.666 25.667 -24.999 77c-7.33301 110.667 -38.333 235 -93 373c-25.333 64 -60.666 140.667 -105.999 230c-28 55.333 -60 108.333 -96 159c-24 34 -35.667 55 -35 63c6 33.333 20.667 101.333 44 204
c8.66699 37.333 17.334 56 26.001 56c7.33301 0 20.333 -13.333 39 -40c82 -117.333 151 -253 207 -407c60 -166 90 -314.667 90 -446c0 -88 -4.33301 -151.667 -13 -191z" />
    <glyph glyph-name="one" unicode="&#x661;" horiz-adv-x="940" 
d="M653 8c-11.333 -52 -24.0029 -78 -38.0029 -78c-13.333 0 -21.666 25.667 -24.999 77c-7.33301 110.667 -38.333 235 -93 373c-25.333 64 -60.666 140.667 -105.999 230c-28 55.333 -60 108.333 -96 159c-24 34 -35.667 55 -35 63c6 33.333 20.667 101.333 44 204
c8.66699 37.333 17.334 56 26.001 56c7.33301 0 20.333 -13.333 39 -40c82 -117.333 151 -253 207 -407c60 -166 90 -314.667 90 -446c0 -88 -4.33301 -151.667 -13 -191z" />
    <glyph glyph-name="two" unicode="2" horiz-adv-x="940" 
d="M494 -73c-13.333 0 -21 15.334 -23 46.001c-8.66699 124.667 -40 263 -94 415c-42 118 -72 195 -90 231c-24 48 -51.667 95.667 -83 143c-24 36 -36 57.667 -36 65c0 27.333 14 95.666 42 204.999c11.333 44.667 21.333 67 30 67c8 0 37.667 -46 89 -138
c38 -48.667 93.333 -73 166 -73c98.667 0 166 60.333 202 181c6.66699 23.333 15 35 25 35c12 0 20 -12 24 -36c7.33301 -46 11 -80.333 11 -103c0 -109.333 -20 -185.666 -60 -228.999c-60 -64.667 -132.333 -97 -217 -97c48.667 -158.667 73 -296.334 73 -413.001
c0 -44 -4 -98 -12 -162c-11.333 -91.333 -27 -137 -47 -137z" />
    <glyph glyph-name="two" unicode="&#x6f2;" horiz-adv-x="940" 
d="M494 -73c-13.333 0 -21 15.334 -23 46.001c-8.66699 124.667 -40 263 -94 415c-42 118 -72 195 -90 231c-24 48 -51.667 95.667 -83 143c-24 36 -36 57.667 -36 65c0 27.333 14 95.666 42 204.999c11.333 44.667 21.333 67 30 67c8 0 37.667 -46 89 -138
c38 -48.667 93.333 -73 166 -73c98.667 0 166 60.333 202 181c6.66699 23.333 15 35 25 35c12 0 20 -12 24 -36c7.33301 -46 11 -80.333 11 -103c0 -109.333 -20 -185.666 -60 -228.999c-60 -64.667 -132.333 -97 -217 -97c48.667 -158.667 73 -296.334 73 -413.001
c0 -44 -4 -98 -12 -162c-11.333 -91.333 -27 -137 -47 -137z" />
    <glyph glyph-name="two" unicode="&#x662;" horiz-adv-x="940" 
d="M494 -73c-13.333 0 -21 15.334 -23 46.001c-8.66699 124.667 -40 263 -94 415c-42 118 -72 195 -90 231c-24 48 -51.667 95.667 -83 143c-24 36 -36 57.667 -36 65c0 27.333 14 95.666 42 204.999c11.333 44.667 21.333 67 30 67c8 0 37.667 -46 89 -138
c38 -48.667 93.333 -73 166 -73c98.667 0 166 60.333 202 181c6.66699 23.333 15 35 25 35c12 0 20 -12 24 -36c7.33301 -46 11 -80.333 11 -103c0 -109.333 -20 -185.666 -60 -228.999c-60 -64.667 -132.333 -97 -217 -97c48.667 -158.667 73 -296.334 73 -413.001
c0 -44 -4 -98 -12 -162c-11.333 -91.333 -27 -137 -47 -137z" />
    </font>
</defs>
</svg>
